<svg width="19" height="24" viewBox="0 0 19 24" fill="none" xmlns="http://www.w3.org/2000/svg">
<g opacity="0.36">
<path fill-rule="evenodd" clip-rule="evenodd" d="M8.66537 1.92227C7.80011 2.02665 6.96791 2.39127 6.30526 2.95756C5.54486 3.60036 5.0069 4.50199 4.81091 5.47918C4.60498 6.48093 4.75376 7.55306 5.23408 8.45751C5.80982 9.56128 6.86352 10.4067 8.07167 10.7142C9.0824 10.9843 10.1881 10.8814 11.1308 10.4279C12.0669 9.98493 12.8377 9.20658 13.2741 8.26811C13.735 7.28808 13.8186 6.13897 13.5083 5.1018C13.1942 4.03062 12.4608 3.09168 11.5015 2.52209C10.658 2.012 9.64254 1.80277 8.66536 1.92227H8.66537ZM9.0366 0H9.37665C10.1432 0.02739 10.9074 0.179 11.6168 0.47325C12.9973 1.03434 14.163 2.09939 14.8535 3.419C15.4221 4.49396 15.6668 5.73564 15.5563 6.94615C15.442 8.27615 14.8889 9.56034 14.0099 10.5635C13.0668 11.6493 11.7481 12.4041 10.3302 12.6516C9.05314 12.8816 7.70707 12.7101 6.53151 12.1604C5.14767 11.5223 4.00942 10.3718 3.38834 8.97989C2.82252 7.72876 2.68461 6.29202 2.99161 4.95446C3.29671 3.60604 4.06043 2.36908 5.1231 1.48588C6.21082 0.56725 7.61449 0.04016 9.0366 2e-05" fill="white"/>
<path fill-rule="evenodd" clip-rule="evenodd" d="M4.67663 14.5967C4.94399 14.4721 5.22268 14.3158 5.52878 14.3559C5.97895 14.3942 6.36157 14.7969 6.37102 15.2493C6.39702 15.6525 6.28836 16.1256 6.58264 16.4571C6.79948 16.6818 7.02431 16.9004 7.25577 17.1096C7.36819 17.1997 7.47305 17.0609 7.55006 16.9915C7.86324 16.6615 8.2846 16.382 8.3975 15.9141C8.47023 15.5925 8.70833 15.3111 9.0248 15.2087C9.40647 15.0732 9.86421 15.2205 10.0938 15.5538C10.2445 15.7469 10.2473 16.0076 10.3767 16.2116C10.5378 16.4816 10.7915 16.6757 11.0088 16.8976C11.1004 16.9788 11.1765 17.086 11.2903 17.1375C11.415 17.1478 11.4859 17.0184 11.5723 16.95C11.7768 16.73 12.0352 16.5529 12.1902 16.2913C12.3871 15.865 12.1793 15.3702 12.3493 14.9377C12.5043 14.5415 12.9497 14.287 13.3701 14.3626C13.6418 14.4159 13.8926 14.5429 14.1406 14.6624C15.3749 15.3007 16.3976 16.3022 17.1675 17.4505C18.1236 18.8693 18.6248 20.5837 18.605 22.2924C18.5922 22.7523 18.1959 23.1475 17.741 23.1839H17.5898C17.2544 23.1527 16.9417 22.9403 16.8047 22.631C16.7159 22.4507 16.7174 22.2448 16.7136 22.0488C16.68 20.4581 16.0626 18.8835 14.9861 17.7087C14.6928 17.3853 14.3645 17.0945 14.0144 16.8338C13.7816 17.5303 13.1977 18.0034 12.6871 18.4949C12.1089 19.0412 11.1972 19.188 10.4778 18.8471C10.0135 18.6432 9.69461 18.2338 9.32899 17.8995C8.97566 18.2135 8.6757 18.603 8.24348 18.8155C7.6875 19.0997 6.99925 19.1012 6.44138 18.8207C6.02947 18.6247 5.73991 18.2612 5.40925 17.9599C5.07103 17.6488 4.80084 17.2635 4.64685 16.8291C3.11636 17.9477 2.08848 19.7315 1.91795 21.622C1.88347 21.8916 1.90709 22.1655 1.86506 22.4345C1.789 22.8364 1.42385 23.148 1.01951 23.1839H0.868818C0.411091 23.1499 0.0119418 22.7519 0.000600089 22.2901C-0.020183 20.5365 0.526828 18.7834 1.53392 17.3475C2.33979 16.1969 3.41916 15.229 4.67661 14.5968L4.67663 14.5967Z" fill="white"/>
<path fill-rule="evenodd" clip-rule="evenodd" d="M10.4312 22.2354C10.4208 21.7508 10.8408 21.3079 11.326 21.2975C12.1763 21.2908 13.0271 21.2956 13.8774 21.2951C14.2171 21.2908 14.5478 21.4874 14.7079 21.7863C14.8794 22.0928 14.8572 22.4942 14.6531 22.7804C14.4949 23.0109 14.2308 23.1545 13.9544 23.1838H11.3033C10.8252 23.1507 10.4175 22.7172 10.4312 22.2354L10.4312 22.2354Z" fill="white"/>
</g>
</svg>
