<svg width="33" height="33" viewBox="0 0 33 33" fill="none" xmlns="http://www.w3.org/2000/svg">
<path fill-rule="evenodd" clip-rule="evenodd" d="M0.5 16.1607C0.5 7.23538 7.73538 0 16.6607 0C25.586 0 32.8214 7.23538 32.8214 16.1607C32.8214 25.086 25.586 32.3214 16.6607 32.3214C7.73538 32.3214 0.5 25.086 0.5 16.1607Z" fill="#F5F6FA"/>
<path fill-rule="evenodd" clip-rule="evenodd" d="M17.5498 21.8197V16.7266H19.1997L19.4692 14.463H17.5498V13.3606C17.5498 12.7778 17.5657 12.1994 18.4348 12.1994H19.315V10.5809C19.315 10.5566 18.5589 10.5017 17.794 10.5017C16.1965 10.5017 15.1962 11.4394 15.1962 13.1614V14.463H13.4309V16.7266H15.1962V21.8197H17.5498Z" fill="#484848"/>
</svg>
