<svg width="33" height="33" viewBox="0 0 33 33" fill="none" xmlns="http://www.w3.org/2000/svg">
<path fill-rule="evenodd" clip-rule="evenodd" d="M0.139318 16.1607C0.139318 7.23538 7.3747 0 16.3 0C25.2253 0 32.4607 7.23538 32.4607 16.1607C32.4607 25.086 25.2253 32.3214 16.3 32.3214C7.3747 32.3214 0.139318 25.086 0.139318 16.1607Z" fill="#F5F6FA"/>
<path fill-rule="evenodd" clip-rule="evenodd" d="M21.464 15.5964H16.8053C16.8053 16.0809 16.8053 17.0499 16.8023 17.5344H19.5019C19.3985 18.0189 19.0317 18.6972 18.5135 19.0387C18.513 19.0382 18.5125 19.0416 18.5115 19.0411C17.8225 19.4961 16.9132 19.5993 16.238 19.4636C15.1798 19.2534 14.3423 18.4859 14.0022 17.5111C14.0042 17.5096 14.0057 17.4961 14.0072 17.4951C13.7943 16.8905 13.7943 16.0809 14.0072 15.5964H14.0067C14.2809 14.7058 15.1436 13.8933 16.2034 13.671C17.0558 13.4902 18.0175 13.686 18.7248 14.3478C18.8189 14.2557 20.0266 13.0765 20.1172 12.9805C17.7007 10.7921 13.8315 11.5619 12.3836 14.388H12.3831C12.3831 14.388 12.3836 14.388 12.3807 14.3933C11.6644 15.7814 11.6941 17.4171 12.3856 18.7388C12.3836 18.7403 12.3821 18.7412 12.3807 18.7427C13.0073 19.9588 14.1477 20.8914 15.5218 21.2466C16.9815 21.6293 18.8392 21.3677 20.0835 20.2422C20.084 20.2427 20.0845 20.2432 20.085 20.2437C21.1393 19.294 21.7957 17.6763 21.464 15.5964" fill="#484848"/>
</svg>
