<svg width="24" height="24" viewBox="0 0 24 24" fill="none" xmlns="http://www.w3.org/2000/svg">
<g opacity="0.36">
<path fill-rule="evenodd" clip-rule="evenodd" d="M11.7455 0H12.2231C13.3331 0.05578 14.43 0.42328 15.3253 1.08703C16.0317 1.61906 16.7325 2.15906 17.437 2.6939C17.4394 2.29499 17.4347 1.89609 17.4389 1.49718C17.4441 1.23093 17.5519 0.95999 17.7586 0.78656C18.0989 0.49265 18.6506 0.49265 18.9909 0.78656C19.2108 0.97078 19.3153 1.26328 19.3125 1.54547C19.3116 2.56266 19.3144 3.58031 19.3111 4.59797C19.3116 4.96875 19.0683 5.32406 18.7219 5.45719C18.4163 5.58328 18.0488 5.5261 17.7909 5.32078C16.628 4.43484 15.4664 3.54797 14.3025 2.66297C13.7602 2.24391 13.1034 1.97485 12.4219 1.90125C11.6189 1.80937 10.7873 1.98516 10.0922 2.39812C9.82874 2.5514 9.59296 2.74593 9.35015 2.92875C7.34718 4.45781 5.34187 5.98406 3.33937 7.51359C2.36999 8.24906 1.81593 9.47531 1.87499 10.688C1.87546 13.2506 1.87452 15.8133 1.87546 18.3764C1.87312 19.2361 2.18109 20.092 2.73046 20.7534C3.30984 21.4603 4.15452 21.9459 5.06015 22.0795C5.40234 22.1372 5.75015 22.1194 6.09562 22.1217C10.1888 22.1222 14.2823 22.1217 18.3759 22.1222C19.0092 22.1236 19.642 21.96 20.1947 21.6502C21.1669 21.1148 21.8766 20.1277 22.0655 19.0327C22.1428 18.6309 22.1227 18.2208 22.125 17.8144C22.1245 15.3764 22.1255 12.9384 22.1245 10.5009C22.1301 9.45046 21.6853 8.40093 20.9048 7.69406C20.745 7.54312 20.5434 7.42875 20.4319 7.23234C20.2355 6.91593 20.2556 6.48281 20.4839 6.1875C20.7605 5.7975 21.3506 5.69156 21.7444 5.96344C23.1328 6.97875 23.9705 8.67282 24 10.3866V18.6108C23.9494 19.5127 23.7014 20.4061 23.2425 21.1866C22.4765 22.5188 21.1448 23.513 19.6448 23.8524C19.2998 23.9367 18.9464 23.9705 18.5934 24H5.40466C3.9731 23.9353 2.57388 23.3161 1.582 22.2783C0.63372 21.3099 0.07263 19.9889 -3e-05 18.6375V10.3861C0.02716 8.94939 0.62669 7.5333 1.64247 6.51658C2.0156 6.13408 2.45997 5.83408 2.87903 5.50596C4.777 4.05893 6.6745 2.6119 8.57153 1.1644C9.47715 0.46034 10.6036 0.06612 11.7454 2e-05L11.7455 0Z" fill="white"/>
<path fill-rule="evenodd" clip-rule="evenodd" d="M10.1316 11.1148C10.4531 11.0413 10.8032 11.0989 11.0811 11.2773C11.4247 11.4912 11.6505 11.8811 11.662 12.2855C11.667 12.6629 11.5168 13.0518 11.2193 13.2933C10.8337 13.6117 10.2578 13.6617 9.81606 13.4327C9.27315 13.1648 9.02678 12.4605 9.23659 11.9026C9.37737 11.5122 9.72539 11.2048 10.1315 11.1148L10.1316 11.1148Z" fill="white"/>
<path fill-rule="evenodd" clip-rule="evenodd" d="M14.0639 11.0968C14.3927 11.0501 14.741 11.1275 15.0095 11.3262C15.4085 11.6164 15.5882 12.164 15.4648 12.6382C15.3965 12.9415 15.2103 13.2191 14.9463 13.3851C14.5046 13.6697 13.8867 13.6471 13.4716 13.3233C13.0209 12.9772 12.8799 12.3114 13.1168 11.8009C13.2784 11.4187 13.6558 11.1497 14.0639 11.0968Z" fill="white"/>
<path fill-rule="evenodd" clip-rule="evenodd" d="M10.2304 14.9417C10.6879 14.8735 11.1872 15.0626 11.4468 15.4527C11.7763 15.9266 11.7306 16.6203 11.3323 17.04C10.921 17.4813 10.1857 17.5435 9.69254 17.2035C9.21039 16.8815 9.03716 16.2035 9.26517 15.6779C9.41982 15.2792 9.80854 14.9944 10.2304 14.9417V14.9417Z" fill="white"/>
<path fill-rule="evenodd" clip-rule="evenodd" d="M14.0643 14.9426C14.392 14.8961 14.7389 14.9737 15.0074 15.17C15.4058 15.4585 15.5866 16.0028 15.4646 16.475C15.3963 16.7769 15.2111 17.0539 14.9471 17.2196C14.505 17.5051 13.8852 17.4821 13.4691 17.1581C13.0199 16.814 12.8789 16.152 13.1158 15.6442C13.2774 15.2631 13.6558 14.9947 14.0643 14.9426H14.0643Z" fill="white"/>
</g>
</svg>
