<svg width="596" height="322" viewBox="0 0 596 322" fill="none" xmlns="http://www.w3.org/2000/svg">
<path fill-rule="evenodd" clip-rule="evenodd" d="M595.345 206.433C595.378 223.65 590.677 240.545 581.758 255.271C581.758 273.28 573.362 289.604 559.743 301.502C556.334 304.481 552.664 307.146 548.777 309.466C548.621 309.565 548.46 309.658 548.298 309.752C548.007 309.924 547.716 310.095 547.419 310.272L547.143 310.434C534.252 317.618 519.723 321.349 504.966 321.264L113.207 321.264C86.1931 321.264 61.7384 311.859 44.0204 296.658C26.3023 281.458 15.3833 260.421 15.3833 237.219C5.46173 221.941 0.198482 204.107 0.235022 185.89C0.235022 134.317 41.4558 92.5075 92.3107 92.5075C94.1106 92.5075 95.8948 92.57 97.6687 92.6688C129.578 38.2549 201.553 0.31086 285.17 0.31086C336.576 0.31086 383.566 14.6426 419.559 38.3225C433.193 30.615 448.593 26.5734 464.255 26.5918C515.099 26.5918 556.33 68.401 556.33 119.975C556.323 123.238 556.149 126.499 555.81 129.744C580.682 147.351 595.431 175.96 595.345 206.433L595.345 206.433Z" fill="#242874"/>
<path opacity="0.1" fill-rule="evenodd" clip-rule="evenodd" d="M28.0429 228.234C28.0429 225.462 111.946 223.215 215.445 223.215C318.945 223.215 402.848 225.462 402.848 228.234C402.848 231.006 318.945 233.253 215.445 233.253C111.946 233.253 28.0429 231.006 28.0429 228.234Z" fill="#6C63FF"/>
<g opacity="0.7">
<path fill-rule="evenodd" clip-rule="evenodd" d="M85.8843 224.177V191.184H145.64V224.177H85.8843Z" fill="white"/>
<path opacity="0.1" fill-rule="evenodd" clip-rule="evenodd" d="M106.924 200.747V196.928H125.087V200.747H106.924Z" fill="black"/>
<path opacity="0.1" fill-rule="evenodd" clip-rule="evenodd" d="M109.196 200.271V197.404H122.815V200.271H109.196Z" fill="black"/>
<path fill-rule="evenodd" clip-rule="evenodd" d="M146.603 224.177V191.184H206.359V224.177H146.603Z" fill="white"/>
<path opacity="0.1" fill-rule="evenodd" clip-rule="evenodd" d="M167.632 200.747V196.928H185.805V200.747H167.632Z" fill="black"/>
<path opacity="0.1" fill-rule="evenodd" clip-rule="evenodd" d="M169.904 200.271V197.404H183.534V200.271H169.904Z" fill="black"/>
<path fill-rule="evenodd" clip-rule="evenodd" d="M85.8843 190.232V157.249H145.64V190.232H85.8843Z" fill="white"/>
<path opacity="0.1" fill-rule="evenodd" clip-rule="evenodd" d="M106.924 166.802V162.983H125.087V166.802H106.924Z" fill="black"/>
<path opacity="0.1" fill-rule="evenodd" clip-rule="evenodd" d="M109.196 166.326V163.459H122.815V166.326H109.196Z" fill="black"/>
<path fill-rule="evenodd" clip-rule="evenodd" d="M146.603 190.232V157.249H206.359V190.232H146.603Z" fill="white"/>
<path opacity="0.1" fill-rule="evenodd" clip-rule="evenodd" d="M167.632 166.802V162.983H185.805V166.802H167.632Z" fill="black"/>
<path opacity="0.1" fill-rule="evenodd" clip-rule="evenodd" d="M169.904 166.326V163.459H183.534V166.326H169.904Z" fill="black"/>
<path fill-rule="evenodd" clip-rule="evenodd" d="M85.8843 155.811V122.828H145.64V155.811H85.8843Z" fill="white"/>
<path opacity="0.1" fill-rule="evenodd" clip-rule="evenodd" d="M106.924 132.38V128.561H125.087V132.38H106.924Z" fill="black"/>
<path opacity="0.1" fill-rule="evenodd" clip-rule="evenodd" d="M109.196 131.904V129.037H122.815V131.904H109.196Z" fill="black"/>
<path fill-rule="evenodd" clip-rule="evenodd" d="M146.603 155.811V122.828H206.359V155.811H146.603Z" fill="white"/>
<path opacity="0.1" fill-rule="evenodd" clip-rule="evenodd" d="M167.632 132.38V128.561H185.805V132.38H167.632Z" fill="black"/>
<path opacity="0.1" fill-rule="evenodd" clip-rule="evenodd" d="M169.904 131.904V129.037H183.534V131.904H169.904Z" fill="black"/>
<path fill-rule="evenodd" clip-rule="evenodd" d="M146.603 121.39V88.4067H206.359V121.39H146.603Z" fill="white"/>
<path opacity="0.1" fill-rule="evenodd" clip-rule="evenodd" d="M167.632 97.9693V94.1402H185.805V97.9693H167.632Z" fill="black"/>
<path opacity="0.1" fill-rule="evenodd" clip-rule="evenodd" d="M169.904 97.4831V94.6163H183.534V97.4831H169.904Z" fill="black"/>
</g>
<g opacity="0.7">
<path fill-rule="evenodd" clip-rule="evenodd" d="M207.311 223.691V190.708H267.077V223.691H207.311Z" fill="#65617D"/>
<path opacity="0.1" fill-rule="evenodd" clip-rule="evenodd" d="M228.35 200.271V196.442H246.513V200.271H228.35Z" fill="black"/>
<path opacity="0.1" fill-rule="evenodd" clip-rule="evenodd" d="M230.622 199.795V196.928H244.242V199.795H230.622Z" fill="black"/>
<path fill-rule="evenodd" clip-rule="evenodd" d="M268.029 223.691V190.708H327.785V223.691H268.029Z" fill="#65617D"/>
<path opacity="0.1" fill-rule="evenodd" clip-rule="evenodd" d="M289.069 200.271V196.442H307.232V200.271H289.069Z" fill="black"/>
<path opacity="0.1" fill-rule="evenodd" clip-rule="evenodd" d="M291.331 199.795V196.928H304.96V199.795H291.331Z" fill="black"/>
<path fill-rule="evenodd" clip-rule="evenodd" d="M207.311 189.756V156.763H267.077V189.756H207.311Z" fill="white"/>
<path opacity="0.1" fill-rule="evenodd" clip-rule="evenodd" d="M228.35 166.326V162.507H246.513V166.326H228.35Z" fill="black"/>
<path opacity="0.1" fill-rule="evenodd" clip-rule="evenodd" d="M230.622 165.85V162.983H244.242V165.85H230.622Z" fill="black"/>
<path fill-rule="evenodd" clip-rule="evenodd" d="M268.029 189.756V156.763H327.785V189.756H268.029Z" fill="white"/>
<path opacity="0.1" fill-rule="evenodd" clip-rule="evenodd" d="M289.069 166.326V162.507H307.232V166.326H289.069Z" fill="black"/>
<path opacity="0.1" fill-rule="evenodd" clip-rule="evenodd" d="M291.331 165.85V162.983H304.96V165.85H291.331Z" fill="black"/>
<path fill-rule="evenodd" clip-rule="evenodd" d="M207.311 155.335V122.342H267.077V155.335H207.311Z" fill="white"/>
<path opacity="0.1" fill-rule="evenodd" clip-rule="evenodd" d="M228.35 131.904V128.085H246.513V131.904H228.35Z" fill="black"/>
<path opacity="0.1" fill-rule="evenodd" clip-rule="evenodd" d="M230.622 131.428V128.561H244.242V131.428H230.622Z" fill="black"/>
<path fill-rule="evenodd" clip-rule="evenodd" d="M268.029 155.335V122.342H327.785V155.335H268.029Z" fill="white"/>
<path opacity="0.1" fill-rule="evenodd" clip-rule="evenodd" d="M289.069 131.904V128.085H307.232V131.904H289.069Z" fill="black"/>
<path opacity="0.1" fill-rule="evenodd" clip-rule="evenodd" d="M291.331 131.428V128.561H304.96V131.428H291.331Z" fill="black"/>
<path fill-rule="evenodd" clip-rule="evenodd" d="M268.029 120.913V87.9206H327.785V120.913H268.029Z" fill="white"/>
<path opacity="0.1" fill-rule="evenodd" clip-rule="evenodd" d="M289.069 97.4832V93.6642H307.232V97.4832H289.069Z" fill="black"/>
<path opacity="0.1" fill-rule="evenodd" clip-rule="evenodd" d="M291.331 97.007V94.1403H304.96V97.007H291.331Z" fill="black"/>
</g>
<path opacity="0.1" fill-rule="evenodd" clip-rule="evenodd" d="M437.877 0.36325C437.877 0.36325 397.632 -2.06584 402.365 26.146C402.365 26.146 401.409 31.1333 405.94 33.395C405.94 33.395 406.012 31.3054 410.07 32.0179C411.515 32.2575 412.983 32.3281 414.444 32.2283C416.418 32.0919 418.294 31.3165 419.789 30.0191C419.789 30.0191 431.103 25.3427 435.501 6.8472C435.501 6.8472 438.756 2.81145 438.627 1.77384L431.835 4.67631C431.835 4.67631 434.158 9.57752 432.313 13.6515C432.313 13.6515 432.093 4.85324 430.788 5.04451C430.525 5.08755 427.26 6.74201 427.26 6.74201C427.26 6.74201 431.251 15.2773 428.24 21.4839C428.24 21.4839 429.382 10.9642 426.012 7.35884L421.232 10.1513C421.232 10.1513 425.898 18.9687 422.733 26.1651C422.733 26.1651 423.546 15.1291 420.223 10.8303L415.893 14.211C415.893 14.211 420.276 22.904 417.604 28.8716C417.604 28.8716 417.255 16.0232 414.956 15.0526C414.956 15.0526 411.165 18.3997 410.587 19.7673C410.587 19.7673 413.589 26.0791 411.724 29.4071C411.724 29.4071 410.582 20.848 409.645 20.8001C409.645 20.8001 405.869 26.4712 405.477 30.3635C405.477 30.3635 405.639 24.5777 408.732 20.2598C408.732 20.2598 405.08 20.8862 402.948 23.2579C402.948 23.2579 403.536 19.2461 409.664 18.897C409.664 18.897 412.786 14.5935 413.617 14.3305C413.617 14.3305 407.527 13.8237 403.832 15.459C403.832 15.459 407.083 11.6767 414.736 13.3981L419.014 9.9027C419.014 9.9027 410.993 8.80771 407.59 10.0175C407.59 10.0175 411.505 6.67031 420.166 9.11376L424.832 6.3499C424.832 6.3499 417.991 4.87716 413.918 5.39358C413.918 5.39358 418.221 3.07446 426.199 5.58962L429.545 4.09296C429.545 4.09296 424.535 3.10793 423.068 2.95013C421.6 2.79234 421.524 2.39068 421.524 2.39068C424.698 1.86129 427.956 2.22382 430.936 3.43788C430.936 3.43786 438.001 0.807955 437.877 0.36325H437.877Z" fill="#6C63FF"/>
<path opacity="0.1" fill-rule="evenodd" clip-rule="evenodd" d="M388.243 7.54358C388.243 7.54358 370.068 6.44412 372.196 19.1932C372.196 19.1932 371.771 21.4447 373.808 22.4677C373.808 22.4677 373.842 21.5117 375.678 21.8415C376.331 21.9513 376.994 21.9833 377.654 21.9371C378.546 21.8765 379.395 21.5256 380.069 20.938V20.938C380.069 20.938 385.187 18.8299 387.177 10.4739C387.177 10.4739 388.645 8.64782 388.588 8.17936L385.517 9.48919C385.517 9.48919 386.569 11.7073 385.742 13.5477C385.742 13.5477 385.641 9.57043 385.053 9.66605C384.933 9.66605 383.455 10.4309 383.455 10.4309C383.455 10.4309 385.263 14.2886 383.9 17.0947C383.9 17.0947 384.417 12.3431 382.891 10.7129L380.729 11.975C380.729 11.975 382.843 15.957 381.408 19.2076C381.408 19.2076 381.777 14.2217 380.275 12.2809L378.318 13.8058C378.318 13.8058 380.299 17.7352 379.093 20.4313C379.093 20.4313 378.935 14.6233 377.893 14.1882C377.893 14.1882 376.18 15.6988 375.917 16.3203C375.917 16.3203 377.276 19.1884 376.434 20.6703C376.434 20.6703 375.917 16.8031 375.477 16.7887C375.477 16.7887 373.775 19.351 373.593 21.091C373.678 19.4671 374.186 17.8935 375.066 16.5258C374.081 16.7123 373.171 17.1826 372.45 17.8786C372.45 17.8786 372.718 16.0717 375.487 15.9091C375.487 15.9091 376.922 13.9683 377.276 13.8488C377.276 13.8488 374.521 13.6194 372.851 14.3603C372.851 14.3603 374.32 12.649 377.783 13.4282L379.696 11.8507C379.696 11.8507 376.07 11.3726 374.53 11.9033C374.53 11.9033 376.3 10.3927 380.217 11.4922L382.322 10.2349C382.322 10.2349 379.232 9.56567 377.386 9.80947C377.386 9.80947 379.332 8.75782 382.939 9.89553L384.445 9.2215C384.445 9.2215 382.178 8.77214 381.513 8.70523C380.849 8.63829 380.815 8.45188 380.815 8.45188C382.251 8.21315 383.725 8.37865 385.072 8.9299C385.072 8.92992 388.301 7.74436 388.243 7.54359L388.243 7.54358Z" fill="#6C63FF"/>
<path fill-rule="evenodd" clip-rule="evenodd" d="M105.952 305.302C105.952 303.506 114.56 302.051 125.178 302.051C135.796 302.051 144.404 303.506 144.404 305.302C144.404 307.098 135.796 308.554 125.178 308.554C114.56 308.554 105.952 307.098 105.952 305.302Z" fill="#FFA101"/>
<path fill-rule="evenodd" clip-rule="evenodd" d="M133.131 299.984C134.009 299.27 134.647 298.305 134.962 297.218C135.201 296.124 134.733 294.829 133.681 294.404C132.505 293.955 131.248 294.772 130.296 295.594C129.345 296.415 128.25 297.357 127.007 297.18C128.31 295.997 128.898 294.218 128.556 292.493C128.502 292.141 128.353 291.811 128.126 291.537C127.471 290.84 126.29 291.136 125.506 291.685C123.021 293.434 122.327 296.812 122.313 299.846C122.064 298.752 122.275 297.61 122.27 296.501C122.265 295.393 121.955 294.112 121.003 293.525C120.417 293.209 119.757 293.054 119.091 293.076C117.977 293.033 116.73 293.147 115.969 293.964C115.013 294.977 115.267 296.678 116.089 297.787C116.911 298.895 118.168 299.607 119.325 300.376C120.251 300.928 121.04 301.68 121.634 302.579C121.706 302.704 121.764 302.837 121.806 302.975L128.814 302.975C130.382 302.178 131.834 301.171 133.131 299.984L133.131 299.984Z" fill="#FFA101"/>
<path fill-rule="evenodd" clip-rule="evenodd" d="M360.945 163.817C360.865 163.081 360.417 162.436 359.755 162.105C359.201 161.869 358.574 161.868 358.019 162.102C357.464 162.337 357.028 162.786 356.811 163.348L346.195 185.689L343.806 273.657H347.629L349.063 185.885L360.744 165.203C360.956 164.774 361.026 164.289 360.945 163.817L360.945 163.817Z" fill="#3F3D56"/>
<path opacity="0.1" fill-rule="evenodd" clip-rule="evenodd" d="M532.188 293.521C529.055 296.258 525.682 298.707 522.11 300.839C522.054 300.917 521.992 300.991 521.924 301.059C521.544 301.38 521.094 301.606 520.609 301.718C508.762 308.319 495.41 311.747 481.848 311.669H219.003C188.885 308.572 170.509 304.466 170.509 299.959C170.509 296.465 181.542 293.211 200.54 290.486C202.51 290.2 204.564 289.922 206.703 289.655C208.019 289.489 209.365 289.33 210.742 289.177L213.08 288.904C214.814 288.707 216.594 288.514 218.42 288.326H218.568L220.48 288.135C222.096 287.968 223.745 287.81 225.428 287.657L226.652 287.547L229.774 287.27C231.801 287.088 233.872 286.915 235.988 286.749C237.744 286.612 239.529 286.475 241.343 286.338C259.729 284.976 280.926 283.948 303.992 283.284L310.58 283.059L312.798 283.011L317.483 282.906L319.361 282.868L321.336 282.83L322.741 282.806L329.339 282.701L332.728 282.653H333.421C341.437 282.557 349.602 282.508 357.917 282.505C374.352 282.505 390.291 282.701 405.479 283.073C414.198 283.284 422.652 283.551 430.84 283.876H430.916C454.522 284.804 475.653 286.171 493.14 287.867L493.46 287.901C497.949 288.336 502.199 288.799 506.186 289.277C509.939 289.726 513.462 290.2 516.732 290.682C517.865 290.85 518.965 291.022 520.035 291.189L520.308 291.237C524.84 291.968 528.817 292.714 532.188 293.521L532.188 293.521Z" fill="#6C63FF"/>
<path fill-rule="evenodd" clip-rule="evenodd" d="M522.107 300.837C522.051 300.916 521.988 300.989 521.92 301.057C521.541 301.379 521.09 301.605 520.605 301.717C519.639 301.988 518.644 302.148 517.642 302.195H517.34C516.768 302.214 516.194 302.195 515.624 302.138C515.208 302.077 514.787 302.05 514.367 302.056H514.31C513.698 302.142 513.097 302.291 512.517 302.501C511.223 302.856 509.89 303.045 508.549 303.065H508.071C506.57 303.065 505.05 303.013 503.544 303.022C503.3 303.022 503.066 303.022 502.812 303.022C500.231 303.089 497.664 303.5 495.082 303.543H494.255C491.726 303.481 489.14 302.941 487.128 301.411C486.722 301.143 486.392 300.774 486.171 300.34C486 299.883 485.942 299.39 486.004 298.906C486.052 298.041 486.219 297.099 486.869 296.516C487.278 296.202 487.747 295.976 488.246 295.851C489.121 295.569 490.001 295.297 490.875 295.024C491.75 294.752 492.749 294.46 493.691 294.183L493.873 294.125L494.399 293.967L494.738 293.853C495.15 293.721 495.544 293.541 495.914 293.317C496.402 293.009 496.815 292.596 497.123 292.108C497.176 292.022 497.233 291.931 497.281 291.84C497.329 291.749 497.281 291.692 497.248 291.615C497.167 291.018 497.104 290.406 496.999 289.823C495.654 289.511 494.427 288.817 493.466 287.824C492.641 287.006 491.946 286.066 491.406 285.037C490.216 282.8 489.604 280.3 488.715 277.924C487.352 274.309 485.368 270.973 483.37 267.664C481.544 264.614 479.708 261.555 477.633 258.672C476.252 256.76 474.765 254.938 473.398 253.021C469.53 247.672 466.755 241.612 465.233 235.189C464.999 233.957 464.669 232.745 464.243 231.566C463.421 229.558 461.915 227.923 460.748 226.087C459.494 224.108 458.636 221.905 458.219 219.6C457.98 218.29 457.579 216.875 456.274 216.731L456.135 217.004C453.429 222.262 450.652 227.617 446.574 231.91C445.922 232.541 445.325 233.227 444.791 233.961C444.363 234.672 443.979 235.41 443.644 236.169C442.998 237.533 442.142 238.787 441.105 239.884C440.797 240.196 440.461 240.479 440.101 240.73C439.624 241.077 439.093 241.344 438.529 241.519C438.306 241.587 438.08 241.638 437.85 241.672C437.85 241.729 437.874 241.782 437.878 241.839C437.883 241.897 437.907 241.964 437.917 242.026C438.62 245.85 438.319 249.792 437.042 253.466C437.008 253.58 436.97 253.69 436.927 253.805C436.73 254.341 436.514 254.867 436.282 255.383C435.699 256.65 435.005 257.864 434.46 259.15C434.37 259.37 434.279 259.59 434.197 259.81C432.285 264.93 432.763 270.647 432.515 276.15C432.493 277.353 432.35 278.551 432.089 279.726C431.764 281.05 431.243 282.417 430.956 283.785C430.695 284.81 430.674 285.881 430.894 286.916L430.779 286.959C430.268 287.15 429.747 287.322 429.226 287.485V287.557C429.412 288.627 429.594 289.698 429.78 290.764C429.938 291.682 430.124 292.677 430.765 293.327C430.939 293.47 431.099 293.631 431.243 293.805C431.621 294.398 431.286 295.182 431.358 295.885C431.463 296.879 432.381 297.725 432.237 298.715C432.106 299.315 431.688 299.812 431.119 300.044C430.883 300.15 430.636 300.229 430.383 300.278L430.225 300.311C429.938 300.364 429.651 300.393 429.364 300.421C425.803 300.775 422.194 301.129 418.666 300.527C417.968 300.407 417.274 300.249 416.567 300.192C415.673 300.152 414.777 300.189 413.89 300.302C407.345 300.922 400.763 301.049 394.199 300.684C392.492 300.589 390.532 300.311 389.629 298.853C388.878 297.644 389.151 296.081 389.528 294.699C389.636 294.191 389.832 293.706 390.107 293.265C390.138 293.217 390.173 293.172 390.212 293.131C391.091 292.036 392.746 291.969 394.17 292.012L398.826 292.151C399.285 292.188 399.746 292.152 400.194 292.046C400.949 291.826 401.523 291.223 402.23 290.884C403.119 290.458 404.238 290.406 404.879 289.679L404.96 289.574C405.073 289.42 405.178 289.26 405.275 289.096C405.275 289.062 405.318 289.029 405.342 288.996C405.36 288.966 405.379 288.937 405.399 288.909C405.987 288.135 407.015 287.877 407.852 287.384C407.979 287.311 408.099 287.226 408.21 287.131L408.306 287.045C407.405 286.402 406.62 285.612 405.983 284.707C405.737 284.443 405.555 284.126 405.452 283.78C405.394 283.52 405.414 283.249 405.51 283.001C405.53 282.94 405.556 282.88 405.586 282.824L405.61 282.776C405.935 282.135 406.604 281.557 406.972 280.902C406.986 280.881 406.998 280.859 407.006 280.835C407.512 279.879 407.613 278.397 406.862 277.627C407.245 271.331 408.975 265.197 409.358 258.882C409.511 256.382 409.449 253.872 409.563 251.362C409.678 248.852 409.946 246.419 410.228 243.957C410.859 238.33 412.389 232.818 412.174 227.167C412.155 226.641 412.178 226.113 412.241 225.59C412.238 225.552 412.238 225.513 412.241 225.475C412.394 224.317 412.755 223.196 413.307 222.167C414 221.003 414.785 219.897 415.654 218.859C418.594 215.034 422.127 211.21 423.173 206.505C423.714 204.077 424.909 201.854 426.099 199.669C426.802 198.369 427.533 197.035 428.657 196.079C429.265 195.657 429.83 195.177 430.344 194.645C431.128 193.631 431.157 192.23 431.621 191.026C431.86 190.399 432.228 189.826 432.409 189.18C432.409 189.113 432.443 189.051 432.457 188.984C432.563 188.333 432.619 187.674 432.625 187.015C432.625 186.823 432.653 186.637 432.677 186.451C432.956 184.56 433.505 182.72 434.307 180.986C434.408 180.766 434.503 180.542 434.599 180.322C432.393 179.035 430.448 177.347 428.862 175.345C428.325 174.697 427.858 173.994 427.471 173.246C426.486 171.291 426.262 169.063 425.798 166.922C424.689 161.816 422.15 157.006 421.797 151.786C421.691 150.194 421.797 148.549 421.242 147.044C421.089 146.636 420.909 146.24 420.702 145.858C420.616 145.695 420.535 145.533 420.449 145.38L420.353 145.198L420.109 144.72L419.717 145.026C409.937 152.684 399.669 159.698 388.978 166.023L388.061 166.568C387.583 166.798 387.167 167.139 386.846 167.562C386.808 167.624 386.775 167.687 386.741 167.749C386.521 168.203 386.464 168.705 386.263 169.183C385.833 170.278 384.729 170.976 383.6 171.301C381.559 171.826 379.394 171.547 377.553 170.521C377.319 170.402 377.075 170.278 376.865 170.139C376.306 170.449 375.716 170.7 375.105 170.89C373.193 171.444 371.19 171.42 369.211 171.415C367.232 171.411 365.21 171.415 363.336 172.066C362.083 172.491 360.869 173.194 359.569 173.261C359.419 173.27 359.269 173.27 359.119 173.261C358.378 173.176 357.657 172.964 356.987 172.635L356.595 172.458C356.392 172.361 356.194 172.254 356.002 172.137C355.793 172.008 355.599 171.856 355.424 171.683C355.171 171.429 354.987 171.115 354.889 170.77C354.824 170.521 354.824 170.259 354.889 170.01C354.907 169.898 354.965 169.796 355.051 169.723C355.136 169.673 355.234 169.648 355.333 169.651C355.881 169.645 356.429 169.692 356.968 169.79C357.285 169.833 357.605 169.851 357.924 169.843H358.096C358.666 169.781 359.185 169.487 359.53 169.03C359.583 168.96 359.625 168.883 359.655 168.8C359.713 168.666 359.742 168.521 359.741 168.375C359.743 168.338 359.743 168.302 359.741 168.265C359.54 168.174 359.339 168.083 359.148 167.973C359.048 167.921 358.952 167.863 358.856 167.806L358.799 167.768C358.627 167.651 358.467 167.518 358.321 167.371C358.228 167.279 358.146 167.176 358.077 167.065C357.95 166.892 357.855 166.698 357.795 166.491C357.401 166.409 356.993 166.42 356.605 166.525C356.084 166.668 355.558 166.974 355.042 167.079C354.781 167.145 354.507 167.133 354.253 167.046C353.507 166.778 353.244 165.87 353.086 165.091C353.058 164.942 353.024 164.789 353 164.636C352.945 164.343 352.945 164.041 353 163.747C353.231 163.079 353.672 162.504 354.258 162.107L355.826 160.793L355.94 160.697C355.94 160.568 355.888 160.439 355.869 160.31C355.814 160.014 355.814 159.711 355.869 159.416C356.1 158.749 356.541 158.176 357.126 157.781L360.597 154.86C361.247 154.315 361.954 153.741 362.8 153.684C364.058 153.598 365.062 154.64 366.003 155.477C367.189 156.528 368.628 157.389 370.21 157.494C370.964 157.529 371.717 157.425 372.433 157.188L372.839 157.054C372.753 156.877 372.667 156.701 372.586 156.524C372.447 156.232 372.309 155.936 372.175 155.639C374.211 155.51 376.061 154.392 377.606 153.053C379.15 151.714 380.474 150.132 382.032 148.817C383.715 147.383 385.646 146.317 387.353 144.935C391.321 141.718 393.955 136.99 398.2 134.155C399.672 133.165 401.374 132.377 402.378 130.904C402.689 130.426 402.923 129.948 403.244 129.47C404.262 128.036 406.007 127.376 407.446 126.382C408.885 125.387 410.137 123.929 411.308 122.528C412.14 121.529 412.977 120.53 413.77 119.502C414.502 118.14 415.118 116.715 415.883 115.372C416.532 114.237 417.29 113.167 418.144 112.178C418.34 111.796 418.541 111.413 418.756 111.041C418.972 110.668 419.129 110.414 419.33 110.084C419.469 109.869 419.612 109.664 419.76 109.453C419.325 108.684 418.909 108.019 418.713 107.728L418.618 107.599C418.196 107.149 417.746 106.728 417.27 106.336C416.77 106.261 416.275 106.155 415.788 106.021C409.723 104.359 405.521 98.8426 405.529 92.5538C405.526 92.5396 405.526 92.525 405.529 92.5108C405.53 90.3198 406.051 88.1605 407.049 86.2099C407.25 85.8178 407.465 85.4402 407.699 85.0721C407.481 85.0031 407.268 84.9168 407.063 84.8139C406.714 84.6419 406.41 84.3916 406.174 84.0825C405.979 83.807 405.853 83.4891 405.806 83.155C405.725 82.3671 405.843 81.5715 406.15 80.8412C406.281 80.4896 406.429 80.1449 406.595 79.8085C406.608 79.7889 406.619 79.7681 406.628 79.7464C408.765 75.4438 413.321 72.8001 417.872 72.6137C422.782 72.4177 427.562 74.722 431.434 78.0206C432.59 78.9687 433.624 80.0557 434.513 81.2571C436.535 84.0681 437.448 87.6631 437.716 91.2248C437.816 92.3263 437.797 93.4355 437.659 94.533C437.608 94.9241 437.528 95.3108 437.42 95.6899C437.357 95.9146 437.276 96.1393 437.19 96.364C437.104 96.5887 437.051 96.689 436.975 96.842V96.866C436.903 97.0189 436.822 97.1623 436.741 97.3057L436.698 97.3679L436.636 97.4683C436.674 97.5591 436.717 97.6548 436.76 97.7456C436.803 97.8364 436.841 97.9225 436.889 98.0085H436.946C437.902 98.085 438.787 98.2189 439.762 98.2953C440.221 98.3171 440.676 98.3876 441.12 98.5056C442.076 98.7925 442.798 99.4905 443.601 100.055C445.59 101.46 448.037 102.115 449.992 103.568C452.861 105.71 454.295 109.248 456.035 112.417C458.33 116.663 462.068 120.277 463.717 124.818C464.463 126.88 465.212 128.939 465.964 130.995C467.432 135.025 468.899 139.074 470.893 142.875C473.666 148.162 477.418 152.914 479.641 158.469C479.862 159.026 480.276 159.484 480.808 159.76C483.837 164.038 486.53 168.543 488.863 173.237C490.091 175.718 491.253 178.295 491.612 181.044C491.891 183.491 491.688 185.97 491.014 188.339C490.633 189.746 490.165 191.129 489.613 192.479C489.398 192.952 489.238 193.447 489.135 193.956C489.135 194.009 489.135 194.061 489.135 194.114C489.04 195.032 489.389 195.94 489.484 196.858C489.564 197.597 489.481 198.344 489.24 199.048C489.202 199.158 489.159 199.268 489.116 199.377C488.82 199.936 488.569 200.518 488.366 201.118C488.348 201.19 488.335 201.264 488.327 201.338C488.17 202.375 488.581 203.422 488.805 204.459C489.647 208.207 489.494 212.108 489.283 215.933C489.173 217.845 490.718 219.38 492.008 220.79C494.399 223.434 496.268 226.527 498.07 229.606C499.054 231.169 499.881 232.824 500.542 234.549C501.225 236.518 501.498 238.603 501.875 240.644C503.094 246.955 507.077 252.529 508.157 258.854C508.658 261.75 509.935 264.456 511.852 266.684C512.43 267.281 512.962 267.92 513.444 268.597C513.777 269.136 514.042 269.714 514.233 270.318C514.703 271.723 514.925 273.2 514.888 274.682C514.812 275.392 514.853 276.109 515.008 276.805C515.457 278.273 517.063 279.081 517.728 280.462C518.392 281.844 517.933 283.613 518.206 285.181C518.419 286.445 519.102 287.582 520.118 288.365C519.735 288.699 519.334 289.005 518.923 289.321C519.303 289.616 519.637 289.968 519.912 290.363C520.1 290.628 520.261 290.911 520.39 291.209C521.021 292.677 521.04 294.422 521.557 295.99C521.777 296.64 522.087 297.328 521.896 297.988C521.814 298.177 521.76 298.377 521.734 298.581C521.734 299.011 522.183 299.293 522.355 299.685C522.482 300.086 522.388 300.525 522.107 300.837L522.107 300.837Z" fill="url(#paint0_linear_0_65)"/>
<path fill-rule="evenodd" clip-rule="evenodd" d="M420.935 114.391C423.861 113.603 426.467 111.953 429.02 110.323L437.919 104.659C435.504 104.467 433.42 102.746 432.181 100.662C430.943 98.578 430.431 96.1543 430.01 93.7736C426.185 95.2651 422.871 97.7939 419.782 100.466C418.558 101.523 415.957 103.119 415.579 104.769C415.201 106.418 417.611 107.756 418.544 108.861C418.864 109.229 421.881 114.129 420.935 114.391V114.391Z" fill="#FBBEBE"/>
<path opacity="0.1" fill-rule="evenodd" clip-rule="evenodd" d="M420.935 114.391C423.861 113.603 426.467 111.953 429.02 110.323L437.919 104.659C435.504 104.467 433.42 102.746 432.181 100.662C430.943 98.578 430.431 96.1543 430.01 93.7736C426.185 95.2651 422.871 97.7939 419.782 100.466C418.558 101.523 415.957 103.119 415.579 104.769C415.201 106.418 417.611 107.756 418.544 108.861C418.864 109.229 421.881 114.129 420.935 114.391V114.391Z" fill="black"/>
<path fill-rule="evenodd" clip-rule="evenodd" d="M372.317 161.187C370.749 161.99 369.081 162.813 367.326 162.698C365.749 162.597 364.31 161.742 363.124 160.695C362.168 159.863 361.184 158.825 359.926 158.911C359.085 158.969 358.377 159.538 357.727 160.078L354.262 162.98C353.678 163.372 353.237 163.942 353.004 164.605C352.936 165.055 352.964 165.515 353.086 165.954C353.243 166.728 353.506 167.632 354.252 167.895C354.998 168.158 355.81 167.593 356.599 167.378C357.581 167.127 358.621 167.434 359.31 168.177C359.591 168.454 359.761 168.825 359.788 169.219C359.788 170.084 358.832 170.653 357.952 170.696C357.072 170.739 356.231 170.452 355.361 170.505C355.255 170.492 355.148 170.522 355.064 170.588C354.98 170.655 354.927 170.752 354.916 170.859C354.807 171.472 355.018 172.1 355.476 172.523C355.93 172.937 356.459 173.262 357.034 173.479C357.703 173.809 358.425 174.02 359.166 174.1C360.634 174.196 361.982 173.383 363.373 172.91C365.247 172.279 367.264 172.26 369.243 172.264C371.222 172.269 373.23 172.298 375.128 171.743C377.026 171.189 378.828 169.96 379.569 168.129C379.656 167.958 379.685 167.763 379.65 167.574C379.576 167.373 379.434 167.204 379.248 167.096C376.581 165.122 375.501 162.722 372.499 161.302L372.317 161.187Z" fill="#FBBEBE"/>
<path opacity="0.1" fill-rule="evenodd" clip-rule="evenodd" d="M372.317 161.187C370.749 161.99 369.081 162.813 367.326 162.698C365.749 162.597 364.31 161.742 363.124 160.695C362.168 159.863 361.184 158.825 359.926 158.911C359.085 158.969 358.377 159.538 357.727 160.078L354.262 162.98C353.678 163.372 353.237 163.942 353.004 164.605C352.936 165.055 352.964 165.515 353.086 165.954C353.243 166.728 353.506 167.632 354.252 167.895C354.998 168.158 355.81 167.593 356.599 167.378C357.581 167.127 358.621 167.434 359.31 168.177C359.591 168.454 359.761 168.825 359.788 169.219C359.788 170.084 358.832 170.653 357.952 170.696C357.072 170.739 356.231 170.452 355.361 170.505C355.255 170.492 355.148 170.522 355.064 170.588C354.98 170.655 354.927 170.752 354.916 170.859C354.807 171.472 355.018 172.1 355.476 172.523C355.93 172.937 356.459 173.262 357.034 173.479C357.703 173.809 358.425 174.02 359.166 174.1C360.634 174.196 361.982 173.383 363.373 172.91C365.247 172.279 367.264 172.26 369.243 172.264C371.222 172.269 373.23 172.298 375.128 171.743C377.026 171.189 378.828 169.96 379.569 168.129C379.656 167.958 379.685 167.763 379.65 167.574C379.576 167.373 379.434 167.204 379.248 167.096C376.581 165.122 375.501 162.722 372.499 161.302L372.317 161.187Z" fill="black"/>
<path fill-rule="evenodd" clip-rule="evenodd" d="M428.305 110.205C426.802 109.235 424.933 109.017 423.247 109.617C421.581 110.217 420.087 111.213 418.892 112.519C417.699 113.735 416.666 115.099 415.818 116.577C415.005 118.011 414.384 119.512 413.571 120.942C412.137 123.499 410.263 125.756 408.379 127.993C407.208 129.384 406.022 130.794 404.521 131.817C403.02 132.84 401.342 133.467 400.323 134.886C400.003 135.336 399.774 135.843 399.458 136.297C398.459 137.76 396.762 138.544 395.284 139.524C391.049 142.344 388.414 147.039 384.456 150.237C382.749 151.613 380.823 152.694 379.145 154.099C377.581 155.404 376.276 156.968 374.718 158.306C373.159 159.645 371.328 160.749 369.296 160.873C370.654 163.899 372.275 166.868 374.603 169.225C376.931 171.582 380.421 173.087 383.6 172.165C384.728 171.84 385.833 171.151 386.263 170.061C386.398 169.501 386.587 168.955 386.827 168.431C387.147 168.011 387.561 167.671 388.037 167.442C400.799 159.992 412.964 151.565 424.423 142.234C427.497 139.729 430.547 137.487 433.702 135.063C434.834 134.261 435.88 133.345 436.824 132.329C439.515 129.116 440.013 124.601 438.086 120.88C437.241 119.487 436.271 118.174 435.189 116.955C433.222 114.394 430.905 112.121 428.305 110.205H428.305Z" fill="#6C63FF"/>
<path fill-rule="evenodd" clip-rule="evenodd" d="M428.305 110.205C426.802 109.235 424.933 109.017 423.247 109.617C421.581 110.217 420.087 111.213 418.892 112.519C417.699 113.735 416.666 115.099 415.818 116.577C415.005 118.011 414.384 119.512 413.571 120.942C412.137 123.499 410.263 125.756 408.379 127.993C407.208 129.384 406.022 130.794 404.521 131.817C403.02 132.84 401.342 133.467 400.323 134.886C400.003 135.336 399.774 135.843 399.458 136.297C398.459 137.76 396.762 138.544 395.284 139.524C391.049 142.344 388.414 147.039 384.456 150.237C382.749 151.613 380.823 152.694 379.145 154.099C377.581 155.404 376.276 156.968 374.718 158.306C373.159 159.645 371.328 160.749 369.296 160.873C370.654 163.899 372.275 166.868 374.603 169.225C376.931 171.582 380.421 173.087 383.6 172.165C384.728 171.84 385.833 171.151 386.263 170.061C386.398 169.501 386.587 168.955 386.827 168.431C387.147 168.011 387.561 167.671 388.037 167.442C400.799 159.992 412.964 151.565 424.423 142.234C427.497 139.729 430.547 137.487 433.702 135.063C434.834 134.261 435.88 133.345 436.824 132.329C439.515 129.116 440.013 124.601 438.086 120.88C437.241 119.487 436.271 118.174 435.189 116.955C433.222 114.394 430.905 112.121 428.305 110.205H428.305Z" fill="#FFA101"/>
<path fill-rule="evenodd" clip-rule="evenodd" d="M407.763 287.553C406.926 288.031 405.898 288.299 405.31 289.073C405.119 289.322 404.99 289.614 404.784 289.853C404.149 290.598 403.02 290.632 402.136 291.058C401.428 291.392 400.855 292.014 400.104 292.21C399.655 292.316 399.192 292.352 398.732 292.315L394.086 292.176C392.613 292.133 390.888 292.21 390.032 293.41C389.754 293.85 389.557 294.335 389.449 294.844C389.09 296.216 388.799 297.77 389.549 298.975C390.448 300.41 392.417 300.701 394.115 300.797C400.67 301.16 407.244 301.032 413.781 300.414C414.665 300.301 415.558 300.264 416.449 300.304C417.156 300.362 417.849 300.52 418.547 300.639C422.07 301.237 425.675 300.888 429.231 300.534C429.832 300.505 430.425 300.379 430.986 300.161C431.552 299.93 431.969 299.434 432.1 298.837C432.248 297.852 431.325 297.015 431.225 296.025C431.153 295.327 431.488 294.548 431.105 293.955C430.962 293.78 430.802 293.62 430.627 293.477C429.987 292.812 429.8 291.842 429.642 290.933L428.806 286.023C428.782 285.677 428.64 285.349 428.404 285.095C428.228 284.969 428.025 284.885 427.811 284.851C424.169 284.029 420.435 284.78 416.817 285.239C414.954 285.512 413.07 285.606 411.19 285.521C410.377 285.468 410.062 285.373 409.455 285.903C408.848 286.434 408.523 287.108 407.763 287.553V287.553Z" fill="#252529"/>
<path fill-rule="evenodd" clip-rule="evenodd" d="M495.723 293.462C495.084 293.819 494.399 294.088 493.687 294.26C491.809 294.808 489.935 295.38 488.065 295.976C487.567 296.1 487.1 296.324 486.693 296.636C486.043 297.21 485.875 298.147 485.828 299.027C485.766 299.511 485.823 300.003 485.995 300.461C486.219 300.889 486.548 301.255 486.951 301.522C489.093 303.143 491.889 303.645 494.576 303.645C497.262 303.645 499.93 303.19 502.616 303.119C505.862 303.033 509.194 303.492 512.316 302.583C512.912 302.363 513.531 302.212 514.161 302.134C514.58 302.127 514.999 302.155 515.414 302.215C517.088 302.381 518.778 302.227 520.395 301.761C520.881 301.653 521.334 301.428 521.714 301.106C522.099 300.773 522.24 300.237 522.068 299.758C521.896 299.371 521.456 299.089 521.451 298.663C521.474 298.459 521.527 298.259 521.609 298.07C521.805 297.415 521.49 296.732 521.27 296.086C520.653 294.241 520.753 292.118 519.649 290.517C518.545 288.915 516.518 288.256 514.592 288.002C513.025 287.781 511.433 287.826 509.883 288.136C508.138 288.509 506.508 289.288 504.796 289.785C502.81 290.357 500.735 290.553 498.677 290.364C497.31 290.249 497.779 290.464 497.315 291.612C496.986 292.377 496.431 293.023 495.723 293.462Z" fill="#252529"/>
<path fill-rule="evenodd" clip-rule="evenodd" d="M405.476 93.9021C405.476 86.2431 411.683 80.0343 419.339 80.0343C426.995 80.0343 433.202 86.2431 433.202 93.9021C433.202 101.561 426.995 107.77 419.339 107.77C411.683 107.77 405.476 101.561 405.476 93.9021Z" fill="#FBBEBE"/>
<path fill-rule="evenodd" clip-rule="evenodd" d="M519.841 288.504C515.538 292.199 509.73 293.815 504.066 293.872C501.676 293.896 499.195 293.638 497.158 292.4C497.015 291.616 496.957 290.77 496.814 289.986C494.343 289.469 492.426 287.457 491.231 285.229C490.036 283.001 489.428 280.525 488.539 278.163C487.182 274.568 485.193 271.255 483.205 267.966C481.379 264.935 479.548 261.894 477.468 259.031C476.092 257.118 474.6 255.321 473.238 253.413C469.378 248.104 466.608 242.082 465.087 235.696C464.855 234.472 464.524 233.268 464.098 232.096C463.276 230.098 461.77 228.473 460.608 226.651C459.356 224.686 458.497 222.495 458.08 220.202C457.845 218.902 457.444 217.496 456.139 217.362C453.395 222.693 450.598 228.109 446.449 232.445C445.797 233.071 445.2 233.753 444.666 234.482C444.238 235.19 443.854 235.925 443.519 236.681C442.875 238.038 442.02 239.283 440.985 240.372C440.118 241.3 438.975 241.923 437.725 242.15C438.647 246.744 438.098 251.511 436.157 255.775C435.579 257.037 434.886 258.242 434.341 259.518C432.113 264.777 432.629 270.71 432.395 276.413C432.375 277.608 432.234 278.799 431.974 279.965C431.396 282.298 430.201 284.78 430.779 287.113C424.785 289.402 418.126 289.259 411.778 288.293C410.536 288.18 409.331 287.814 408.236 287.218C407.335 286.58 406.55 285.795 405.912 284.894C405.667 284.632 405.485 284.316 405.382 283.972C405.133 282.882 406.338 282.059 406.897 281.103C407.456 280.147 407.557 278.632 406.787 277.848C407.17 271.59 408.9 265.48 409.283 259.203C409.435 256.717 409.373 254.221 409.488 251.731C409.603 249.24 409.87 246.816 410.148 244.368C410.779 238.78 412.308 233.301 412.093 227.684C412.028 225.955 412.426 224.24 413.245 222.717C413.936 221.559 414.72 220.459 415.588 219.427C418.523 215.636 422.051 211.836 423.097 207.155C423.638 204.741 424.833 202.533 426.018 200.362C426.721 199.067 427.452 197.742 428.571 196.791C429.179 196.37 429.745 195.889 430.258 195.357C431.042 194.348 431.071 192.966 431.535 191.762C431.774 191.14 432.142 190.566 432.319 189.926C432.464 189.218 432.537 188.497 432.534 187.775C432.687 185.461 433.576 183.223 434.513 181.105C432.309 179.83 430.364 178.153 428.777 176.162C428.243 175.516 427.779 174.816 427.39 174.073C426.405 172.132 426.181 169.919 425.717 167.791C424.613 162.714 422.075 157.938 421.721 152.751C421.616 151.169 421.721 149.534 421.171 148.037C420.917 147.404 420.62 146.789 420.282 146.197C419.949 145.615 419.695 144.991 419.527 144.342C419.221 142.932 419.641 141.474 419.527 140.039C419.412 138.772 418.872 137.587 418.604 136.349C418.331 134.738 418.284 133.096 418.465 131.472C418.585 129.56 419.001 127.586 418.838 125.697C418.305 119.378 420.487 113.13 424.837 108.516L424.947 108.406C425.86 107.449 426.86 106.603 427.682 105.59C428.8 104.232 429.594 102.635 430.775 101.316C431.291 100.728 431.874 100.202 432.385 99.6091C432.855 98.9874 433.374 98.4054 433.939 97.869C434.519 97.3302 435.328 97.1136 436.1 97.2905C436.196 98.0035 436.419 98.6933 436.759 99.3271C437.754 99.4036 438.638 99.5422 439.628 99.6187C440.086 99.6405 440.541 99.711 440.985 99.8291C441.917 100.111 442.663 100.785 443.461 101.364C445.45 102.764 447.893 103.415 449.848 104.858C452.716 106.986 454.15 110.5 455.881 113.65C458.17 117.871 461.904 121.462 463.529 125.975L465.771 132.113C467.238 136.119 468.706 140.14 470.695 143.917C473.462 149.175 477.21 153.913 479.433 159.416C479.655 159.967 480.067 160.422 480.595 160.697C483.621 164.942 486.311 169.418 488.64 174.083C489.868 176.55 491.03 179.112 491.384 181.842C491.905 185.7 490.853 189.601 489.39 193.206C489.154 193.722 488.993 194.269 488.912 194.831C488.817 195.744 489.166 196.643 489.261 197.556C489.353 198.409 489.227 199.271 488.893 200.061C488.596 200.616 488.345 201.195 488.143 201.792C487.884 202.891 488.343 204.01 488.592 205.109C489.433 208.834 489.28 212.692 489.07 216.507C488.96 218.419 490.504 219.934 491.79 221.335C494.18 223.96 496.044 227.029 497.846 230.093C498.826 231.648 499.652 233.293 500.313 235.008C500.997 236.963 501.269 239.033 501.647 241.065C502.861 247.332 506.838 252.873 507.919 259.16C508.419 262.04 509.695 264.729 511.609 266.938C512.186 267.536 512.718 268.175 513.201 268.85C513.531 269.387 513.794 269.961 513.985 270.562C514.455 271.958 514.676 273.425 514.64 274.898C514.564 275.603 514.604 276.315 514.759 277.006C515.208 278.464 516.815 279.268 517.474 280.64C518.134 282.012 517.68 283.771 517.952 285.329C518.158 286.588 518.833 287.722 519.841 288.504L519.841 288.504Z" fill="#FFA101"/>
<path fill-rule="evenodd" clip-rule="evenodd" d="M375.184 156.882C373.616 157.685 371.948 158.507 370.193 158.392C368.616 158.292 367.177 157.436 365.991 156.389C365.035 155.557 364.051 154.52 362.793 154.606C361.952 154.663 361.244 155.232 360.594 155.772L357.129 158.675C356.545 159.067 356.104 159.637 355.871 160.3C355.803 160.75 355.831 161.21 355.953 161.648C356.11 162.423 356.373 163.326 357.119 163.589C357.865 163.852 358.677 163.288 359.466 163.073C360.448 162.822 361.488 163.128 362.177 163.871C362.458 164.148 362.628 164.519 362.655 164.914C362.655 165.779 361.699 166.348 360.819 166.391C359.939 166.434 359.098 166.147 358.228 166.2C358.122 166.186 358.015 166.216 357.931 166.283C357.847 166.349 357.794 166.447 357.784 166.553C357.674 167.167 357.885 167.794 358.343 168.217C358.797 168.632 359.326 168.956 359.901 169.173C360.57 169.504 361.292 169.714 362.033 169.795C363.501 169.891 364.849 169.078 366.24 168.604C368.114 167.973 370.131 167.954 372.11 167.959C374.089 167.964 376.097 167.993 377.995 167.438C379.893 166.883 381.695 165.655 382.436 163.824C382.523 163.653 382.552 163.458 382.517 163.269C382.443 163.068 382.301 162.898 382.115 162.791C379.448 160.816 378.368 158.416 375.366 156.996L375.184 156.882Z" fill="#FBBEBE"/>
<path fill-rule="evenodd" clip-rule="evenodd" d="M412.593 85.3796C411.766 85.5134 411.063 86.0728 410.279 86.3834C409.214 86.7969 408.024 86.7343 407.009 86.2114C406.659 86.0413 406.353 85.7927 406.115 85.4848C405.474 84.5957 405.699 83.305 406.091 82.2629C407.946 77.3345 412.899 74.2847 417.804 74.0887C422.709 73.8927 427.48 76.1825 431.348 79.4569C432.499 80.4017 433.531 81.4819 434.422 82.674C436.44 85.4705 437.353 89.0413 437.621 92.5787C437.781 94.0631 437.682 95.564 437.329 97.0147C436.986 98.4391 436.078 99.6626 434.814 100.404C433.447 101.102 431.807 100.882 430.426 100.213C429.044 99.5434 427.858 98.487 426.673 97.4784C426.135 96.9605 425.5 96.5558 424.803 96.2881C424.094 96.0354 423.302 96.2225 422.781 96.7661C422.14 97.5357 422.303 98.7977 421.72 99.6343C421.136 100.471 419.922 100.59 418.899 100.59C417.876 100.59 416.838 100.504 416.226 99.6917C415.667 98.9555 415.748 97.8799 415.959 96.9526C416.169 96.0252 416.527 95.1074 416.437 94.1561C416.241 92.244 414.567 91.0681 414.046 89.309C413.707 88.1569 414.453 87.6694 414.376 86.6273C414.319 85.7094 413.334 85.2601 412.593 85.3796L412.593 85.3796Z" fill="#3F3D56"/>
<path opacity="0.1" fill-rule="evenodd" clip-rule="evenodd" d="M456.146 217.244V217.363C453.403 222.694 450.606 228.11 446.458 232.446C445.806 233.072 445.209 233.753 444.675 234.482C444.247 235.19 443.863 235.925 443.528 236.681C442.884 238.038 442.029 239.283 440.995 240.372L437.534 242.102L448.527 184.737L456.146 217.244Z" fill="black"/>
<path opacity="0.1" fill-rule="evenodd" clip-rule="evenodd" d="M440.165 130.417C439.221 131.433 438.175 132.349 437.043 133.151C433.887 135.542 430.827 137.798 427.762 140.322C425.292 142.332 422.786 144.302 420.246 146.23C419.912 145.648 419.658 145.024 419.49 144.375C419.184 142.965 419.605 141.507 419.49 140.073C419.375 138.806 418.835 137.621 418.567 136.383C418.294 134.772 418.247 133.131 418.429 131.507C418.548 129.595 418.964 127.621 418.802 125.733C418.266 119.398 420.46 113.136 424.831 108.519L424.941 108.409C425.456 108.11 426.001 107.867 426.567 107.683C428.257 107.091 430.126 107.317 431.626 108.295C434.225 110.211 436.543 112.483 438.511 115.044C439.593 116.263 440.562 117.576 441.409 118.969C443.34 122.687 442.85 127.201 440.165 130.417L440.165 130.417Z" fill="black"/>
<path fill-rule="evenodd" clip-rule="evenodd" d="M431.172 105.9C429.669 104.93 427.8 104.713 426.114 105.312C424.448 105.912 422.954 106.908 421.759 108.214C420.566 109.43 419.533 110.794 418.685 112.272C417.872 113.707 417.25 115.208 416.438 116.637C415.004 119.195 413.129 121.451 411.246 123.688C410.075 125.079 408.889 126.49 407.388 127.513C405.887 128.536 404.209 129.162 403.19 130.582C402.87 131.031 402.64 131.538 402.325 131.992C401.326 133.455 399.629 134.239 398.151 135.219C393.916 138.039 391.281 142.734 387.323 145.932C385.616 147.309 383.69 148.389 382.012 149.794C380.448 151.1 379.143 152.663 377.585 154.001C376.026 155.34 374.195 156.444 372.163 156.568C373.521 159.594 375.142 162.563 377.47 164.92C379.798 167.277 383.288 168.783 386.467 167.86C387.595 167.535 388.7 166.847 389.13 165.757C389.265 165.196 389.454 164.65 389.694 164.126C390.014 163.706 390.428 163.367 390.904 163.137C403.666 155.688 415.831 147.26 427.29 137.929C430.364 135.424 433.414 133.182 436.569 130.759C437.701 129.956 438.747 129.04 439.691 128.024C442.382 124.811 442.88 120.297 440.953 116.575C440.107 115.182 439.138 113.869 438.056 112.65C436.089 110.089 433.771 107.817 431.172 105.9H431.172Z" fill="#FFA101"/>
<g opacity="0.1">
<path fill-rule="evenodd" clip-rule="evenodd" d="M419.852 98.6678C418.896 98.6678 417.791 98.5818 417.179 97.7691C416.625 97.033 416.701 95.9575 416.911 95.0302C417.122 94.1028 417.48 93.1851 417.39 92.2339C417.193 90.3218 415.52 89.1459 414.999 87.3868C414.659 86.2348 415.405 85.7473 415.329 84.7052C415.262 83.8018 414.282 83.3525 413.54 83.472C412.713 83.6059 412.01 84.1651 411.226 84.4758C410.162 84.8893 408.971 84.8267 407.955 84.3037C407.605 84.1337 407.299 83.885 407.061 83.5772C406.421 82.6881 406.645 81.3974 407.037 80.3554C407.037 80.3171 407.071 80.2837 407.085 80.2455C406.685 80.8851 406.349 81.5622 406.081 82.2674C405.689 83.3095 405.464 84.6001 406.105 85.4892C406.343 85.7971 406.649 86.0457 406.999 86.2158C408.014 86.7387 409.205 86.8013 410.27 86.3878C411.054 86.0771 411.757 85.5179 412.584 85.384C413.325 85.2645 414.305 85.7138 414.372 86.6173C414.449 87.6593 413.703 88.1469 414.042 89.2989C414.554 91.0579 416.228 92.253 416.433 94.1459C416.529 95.1019 416.18 96.0197 415.955 96.9422C415.73 97.8648 415.668 98.9451 416.223 99.6812C416.835 100.494 417.93 100.57 418.896 100.58C419.862 100.589 421.105 100.522 421.717 99.6238C421.981 99.1725 422.155 98.6741 422.229 98.1564C421.578 98.6201 420.67 98.6774 419.852 98.6678Z" fill="black"/>
<path fill-rule="evenodd" clip-rule="evenodd" d="M435.771 98.4944C434.403 99.1925 432.763 98.9725 431.381 98.3031C429.998 97.6337 428.812 96.5769 427.626 95.5679C427.089 95.0499 426.453 94.645 425.756 94.3773C425.046 94.1245 424.254 94.3117 423.733 94.8554C423.408 95.3355 423.203 95.8864 423.135 96.4621C423.638 96.1657 424.245 96.1012 424.799 96.2852C425.496 96.553 426.132 96.9579 426.669 97.4758C427.856 98.4848 429.061 99.5463 430.424 100.211C431.787 100.876 433.447 101.1 434.815 100.402C436.025 99.6944 436.906 98.538 437.269 97.1841C436.875 97.7289 436.363 98.177 435.771 98.4944H435.771Z" fill="black"/>
</g>
<path fill-rule="evenodd" clip-rule="evenodd" d="M302.45 289.667C302.45 281.745 308.872 275.323 316.794 275.323C324.716 275.323 331.138 281.745 331.138 289.667C331.138 297.589 324.716 304.011 316.794 304.011C308.872 304.011 302.45 297.589 302.45 289.667Z" fill="#3F3D56"/>
<path opacity="0.1" fill-rule="evenodd" clip-rule="evenodd" d="M302.45 289.667C302.45 281.745 308.872 275.323 316.794 275.323C324.716 275.323 331.138 281.745 331.138 289.667C331.138 297.589 324.716 304.011 316.794 304.011C308.872 304.011 302.45 297.589 302.45 289.667Z" fill="black"/>
<path fill-rule="evenodd" clip-rule="evenodd" d="M307.708 289.667C307.708 284.649 311.774 280.581 316.789 280.581C321.805 280.581 325.871 284.649 325.871 289.667C325.871 294.685 321.805 298.754 316.789 298.754C311.774 298.754 307.708 294.685 307.708 289.667Z" fill="#65617D"/>
<path opacity="0.1" fill-rule="evenodd" clip-rule="evenodd" d="M307.708 289.667C307.708 284.649 311.774 280.581 316.789 280.581C321.805 280.581 325.871 284.649 325.871 289.667C325.871 294.685 321.805 298.754 316.789 298.754C311.774 298.754 307.708 294.685 307.708 289.667Z" fill="black"/>
<path fill-rule="evenodd" clip-rule="evenodd" d="M305.794 267.194L315.203 288.468C315.489 289.119 316.127 289.545 316.839 289.56C317.55 289.574 318.204 289.174 318.517 288.535L329.7 265.76L305.794 267.194Z" fill="#3F3D56"/>
<path opacity="0.1" fill-rule="evenodd" clip-rule="evenodd" d="M305.794 267.194L315.203 288.468C315.489 289.119 316.127 289.545 316.839 289.56C317.55 289.574 318.204 289.174 318.517 288.535L329.7 265.76L305.794 267.194Z" fill="black"/>
<path fill-rule="evenodd" clip-rule="evenodd" d="M213.054 289.667C213.054 281.745 219.474 275.323 227.393 275.323C235.312 275.323 241.732 281.745 241.732 289.667C241.732 297.589 235.312 304.011 227.393 304.011C219.474 304.011 213.054 297.589 213.054 289.667Z" fill="#3F3D56"/>
<path opacity="0.1" fill-rule="evenodd" clip-rule="evenodd" d="M213.054 289.667C213.054 281.745 219.474 275.323 227.393 275.323C235.312 275.323 241.732 281.745 241.732 289.667C241.732 297.589 235.312 304.011 227.393 304.011C219.474 304.011 213.054 297.589 213.054 289.667Z" fill="black"/>
<path fill-rule="evenodd" clip-rule="evenodd" d="M218.312 289.667C218.312 284.649 222.378 280.581 227.393 280.581C232.409 280.581 236.475 284.649 236.475 289.667C236.475 294.685 232.409 298.754 227.393 298.754C222.378 298.754 218.312 294.685 218.312 289.667Z" fill="#65617D"/>
<path opacity="0.1" fill-rule="evenodd" clip-rule="evenodd" d="M218.312 289.667C218.312 284.649 222.378 280.581 227.393 280.581C232.409 280.581 236.475 284.649 236.475 289.667C236.475 294.685 232.409 298.754 227.393 298.754C222.378 298.754 218.312 294.685 218.312 289.667Z" fill="black"/>
<path fill-rule="evenodd" clip-rule="evenodd" d="M216.398 267.194L225.807 288.468C226.093 289.119 226.731 289.545 227.443 289.56C228.154 289.574 228.808 289.174 229.121 288.535L240.304 265.76L216.398 267.194Z" fill="#3F3D56"/>
<path opacity="0.1" fill-rule="evenodd" clip-rule="evenodd" d="M216.398 267.194L225.807 288.468C226.093 289.119 226.731 289.545 227.443 289.56C228.154 289.574 228.808 289.174 229.121 288.535L240.304 265.76L216.398 267.194Z" fill="black"/>
<path fill-rule="evenodd" clip-rule="evenodd" d="M363.336 164.779C363.256 164.043 362.808 163.398 362.146 163.067C361.591 162.831 360.965 162.83 360.41 163.064C359.855 163.299 359.419 163.748 359.202 164.31L350.977 184.737L348.587 276.523H352.41L353.844 184.933L363.135 166.165C363.346 165.736 363.417 165.251 363.336 164.779L363.336 164.779Z" fill="#3F3D56"/>
<path fill-rule="evenodd" clip-rule="evenodd" d="M194.168 269.351L207.075 261.222L346.43 260.027L350.016 269.351H194.168Z" fill="#FFA101"/>
<path fill-rule="evenodd" clip-rule="evenodd" d="M194.168 277.952V269.351L352.544 267.822L352.391 273.651H197.036V277.952H194.168Z" fill="#3F3D56"/>
<path fill-rule="evenodd" clip-rule="evenodd" d="M199.901 294.686C199.901 286.764 206.323 280.342 214.245 280.342C222.167 280.342 228.588 286.764 228.588 294.686C228.588 302.608 222.167 309.03 214.245 309.03C206.323 309.03 199.901 302.608 199.901 294.686Z" fill="#3F3D56"/>
<path fill-rule="evenodd" clip-rule="evenodd" d="M205.168 294.691C205.168 289.676 209.234 285.61 214.25 285.61C219.265 285.61 223.331 289.676 223.331 294.691C223.331 299.707 219.265 303.773 214.25 303.773C209.234 303.773 205.168 299.707 205.168 294.691Z" fill="#65617D"/>
<path fill-rule="evenodd" clip-rule="evenodd" d="M203.254 272.224L212.66 293.498C212.945 294.149 213.583 294.575 214.294 294.589C215.005 294.604 215.66 294.204 215.972 293.565L227.15 270.79L203.254 272.224Z" fill="#3F3D56"/>
<path fill-rule="evenodd" clip-rule="evenodd" d="M311.299 294.686C311.299 286.764 317.719 280.342 325.638 280.342C333.557 280.342 339.977 286.764 339.977 294.686C339.977 302.608 333.557 309.03 325.638 309.03C317.719 309.03 311.299 302.608 311.299 294.686Z" fill="#3F3D56"/>
<path fill-rule="evenodd" clip-rule="evenodd" d="M316.556 294.691C316.556 289.676 320.622 285.61 325.638 285.61C330.653 285.61 334.719 289.676 334.719 294.691C334.719 299.707 330.653 303.773 325.638 303.773C320.622 303.773 316.556 299.707 316.556 294.691Z" fill="#65617D"/>
<path fill-rule="evenodd" clip-rule="evenodd" d="M314.642 272.224L324.052 293.498C324.338 294.149 324.976 294.575 325.687 294.589C326.398 294.604 327.053 294.204 327.365 293.565L338.548 270.79L314.642 272.224Z" fill="#3F3D56"/>
<path fill-rule="evenodd" clip-rule="evenodd" d="M212.092 264.808V231.825H271.858V264.808H212.092Z" fill="white"/>
<path opacity="0.1" fill-rule="evenodd" clip-rule="evenodd" d="M233.132 241.388V237.559H251.295V241.388H233.132Z" fill="black"/>
<path opacity="0.1" fill-rule="evenodd" clip-rule="evenodd" d="M235.404 240.902V238.035H249.023V240.902H235.404Z" fill="black"/>
<path fill-rule="evenodd" clip-rule="evenodd" d="M272.811 264.808V231.825H332.567V264.808H272.811Z" fill="white"/>
<path opacity="0.1" fill-rule="evenodd" clip-rule="evenodd" d="M293.84 241.388V237.559H312.013V241.388H293.84Z" fill="black"/>
<path opacity="0.1" fill-rule="evenodd" clip-rule="evenodd" d="M296.112 240.902V238.035H309.741V240.902H296.112Z" fill="black"/>
<path fill-rule="evenodd" clip-rule="evenodd" d="M212.092 230.863V197.88H271.858V230.863H212.092Z" fill="white"/>
<path opacity="0.1" fill-rule="evenodd" clip-rule="evenodd" d="M233.132 207.443V203.614H251.295V207.443H233.132Z" fill="black"/>
<path opacity="0.1" fill-rule="evenodd" clip-rule="evenodd" d="M235.404 206.966V204.1H249.023V206.966H235.404Z" fill="black"/>
<path fill-rule="evenodd" clip-rule="evenodd" d="M272.811 230.863V197.88H332.567V230.863H272.811Z" fill="white"/>
<path opacity="0.1" fill-rule="evenodd" clip-rule="evenodd" d="M293.84 207.443V203.614H312.013V207.443H293.84Z" fill="black"/>
<path opacity="0.1" fill-rule="evenodd" clip-rule="evenodd" d="M296.112 206.966V204.1H309.741V206.966H296.112Z" fill="black"/>
<path fill-rule="evenodd" clip-rule="evenodd" d="M212.092 196.442V163.459H271.858V196.442H212.092Z" fill="white"/>
<path opacity="0.1" fill-rule="evenodd" clip-rule="evenodd" d="M233.132 173.022V169.193H251.295V173.022H233.132Z" fill="black"/>
<path opacity="0.1" fill-rule="evenodd" clip-rule="evenodd" d="M235.404 172.545V169.679H249.023V172.545H235.404Z" fill="black"/>
<path fill-rule="evenodd" clip-rule="evenodd" d="M272.811 196.442V163.459H332.567V196.442H272.811Z" fill="white"/>
<path opacity="0.1" fill-rule="evenodd" clip-rule="evenodd" d="M293.84 173.022V169.193H312.013V173.022H293.84Z" fill="black"/>
<path opacity="0.1" fill-rule="evenodd" clip-rule="evenodd" d="M296.112 172.545V169.679H309.741V172.545H296.112Z" fill="black"/>
<path fill-rule="evenodd" clip-rule="evenodd" d="M272.811 162.021V129.038H332.567V162.021H272.811Z" fill="white"/>
<path opacity="0.1" fill-rule="evenodd" clip-rule="evenodd" d="M293.84 138.6V134.771H312.013V138.6H293.84Z" fill="black"/>
<path opacity="0.1" fill-rule="evenodd" clip-rule="evenodd" d="M296.112 138.124V135.258H309.741V138.124H296.112Z" fill="black"/>
<defs>
<linearGradient id="paint0_linear_0_65" x1="522.399" y1="303.6" x2="522.399" y2="72.6299" gradientUnits="userSpaceOnUse">
<stop stop-color="#808080" stop-opacity="0.25"/>
<stop offset="0.54" stop-color="#808080" stop-opacity="0.12"/>
<stop offset="1" stop-color="#808080" stop-opacity="0.1"/>
</linearGradient>
</defs>
</svg>
