<svg width="75" height="53" viewBox="0 0 75 53" fill="none" xmlns="http://www.w3.org/2000/svg">
<path fill-rule="evenodd" clip-rule="evenodd" d="M6.15183 0.554952C8.10579 0.0458651 10.2383 1.59421 10.3632 3.60468C10.6067 5.55676 8.88803 7.43909 6.92108 7.38399C5.00933 7.43909 3.31341 5.66212 3.46435 3.75545C3.5114 2.24599 4.67339 0.866238 6.15184 0.554962L6.15183 0.554952Z" fill="#FFA101"/>
<path fill-rule="evenodd" clip-rule="evenodd" d="M50.7676 38.7102C49.2093 39.2161 48.1748 40.9317 48.4796 42.5484C48.6969 43.9819 49.9131 45.1899 51.3498 45.3959C52.6292 45.6148 53.9945 45.0278 54.7242 43.9559C55.4604 42.9279 55.5528 41.4863 54.9448 40.3755C54.194 38.9064 52.3292 38.1313 50.7676 38.7102V38.7102ZM23.0357 38.7313C21.6282 39.2226 20.6471 40.6982 20.7639 42.1884C20.8288 43.6981 22.0044 45.0602 23.4816 45.3602C24.7627 45.6537 26.1783 45.1299 26.9615 44.0775C27.7301 43.0948 27.889 41.6858 27.3637 40.5555C26.6761 38.9469 24.6686 38.0923 23.0357 38.7313M60.4516 14.3073C59.3149 20.5422 58.1766 26.7755 57.0463 33.0104C59.1495 34.2201 60.7808 36.1757 61.6499 38.4361C62.4915 38.1604 63.2164 37.4827 63.3818 36.5892C64.8152 30.1435 66.2503 23.6961 67.6757 17.2472C68.0422 15.8624 66.8957 14.3446 65.4655 14.3186C63.7936 14.2911 62.1218 14.3154 60.4516 14.3073ZM14.1285 2.54125C14.6522 1.30561 15.9495 0.454307 17.2937 0.472127C28.8052 0.468927 40.3183 0.468927 51.8298 0.472127C54.2232 0.475357 56.5972 1.44508 58.2998 3.12666C59.5014 4.28769 60.3527 5.78439 60.8051 7.38809C62.3569 7.39297 63.9104 7.38324 65.4639 7.39134C67.8978 7.41243 70.2993 8.44536 71.9906 10.1966C73.6884 11.9204 74.6776 14.3219 74.6549 16.7445C74.6711 17.9801 74.3289 19.1769 74.0711 20.3752C72.7544 26.2955 71.4458 32.2174 70.1226 38.1361C69.6021 40.5053 68.1232 42.6538 66.0622 43.9429C64.7455 44.7943 63.2082 45.2645 61.6499 45.391C60.8586 47.5996 59.3344 49.5471 57.3366 50.7876C54.6513 52.5016 51.1471 52.834 48.1861 51.6616C45.3954 50.5978 43.1512 48.2514 42.1507 45.4429C39.4183 45.4413 36.6844 45.4348 33.952 45.4478C33.1072 47.7925 31.4159 49.8293 29.2366 51.0454C26.5334 52.5826 23.1168 52.7805 20.2563 51.5578C17.5792 50.4551 15.45 48.1639 14.4739 45.4445C13.509 45.4948 12.4842 45.344 11.7156 44.7116C10.7638 43.9868 10.2465 42.7414 10.4054 41.5544C10.5513 40.2409 11.5275 39.0718 12.7891 38.6859C13.3339 38.501 13.9144 38.5237 14.4804 38.5156C15.3171 36.1627 17.0213 34.1341 19.2023 32.9147C21.5893 31.5623 24.5276 31.2445 27.1529 32.0358C30.289 32.9471 32.8656 35.4557 33.9569 38.5221C36.6876 38.5221 39.4167 38.5237 42.1475 38.5204C43.3685 35.0244 46.5775 32.3375 50.239 31.765C51.5411 24.5912 52.8562 17.4191 54.1535 10.2453C54.3838 9.15885 53.7351 7.9962 52.7184 7.5762C52.133 7.32164 51.4811 7.39943 50.8617 7.38809C39.7265 7.38971 28.5896 7.38649 17.4527 7.38971C16.4182 7.42377 15.3739 6.9973 14.6977 6.20758C13.8188 5.23141 13.5918 3.73799 14.1285 2.54126" fill="#101357"/>
<path fill-rule="evenodd" clip-rule="evenodd" d="M9.57165 14.4071C10.1392 14.2743 10.7278 14.3164 11.3066 14.3115C15.5728 14.3115 19.8406 14.3115 24.1084 14.3115C25.284 14.2726 26.4547 14.8704 27.0984 15.857C27.8216 16.9246 27.8638 18.4004 27.2022 19.5084C26.612 20.5371 25.464 21.211 24.277 21.2191C19.6785 21.2289 15.0783 21.2208 10.4797 21.224C9.32357 21.258 8.17555 20.6749 7.52694 19.7191C6.87835 18.7892 6.74052 17.5337 7.16862 16.4856C7.57072 15.4584 8.4966 14.6566 9.57165 14.4071V14.4071Z" fill="#FFA101"/>
<path fill-rule="evenodd" clip-rule="evenodd" d="M2.60949 24.7939C3.01005 24.6902 3.42843 24.6854 3.84034 24.6837C7.19555 24.6935 10.5508 24.6789 13.906 24.6918C15.1871 24.6967 16.4179 25.4921 16.9596 26.6487C17.4704 27.7 17.3958 29.0089 16.7601 29.9907C16.1568 30.9609 15.0444 31.5846 13.9011 31.5944C10.4389 31.6041 6.97663 31.5976 3.51277 31.5976C2.43274 31.617 1.36083 31.097 0.710546 30.2353C0.0407954 29.3735 -0.168397 28.1876 0.149452 27.146C0.483512 26.004 1.45163 25.0774 2.6095 24.7939H2.60949Z" fill="#FFA101"/>
<path fill-rule="evenodd" clip-rule="evenodd" d="M2.28055 38.7335C3.28391 38.3641 4.45747 38.4985 5.34898 39.0898C6.27939 39.6893 6.884 40.7585 6.91156 41.8649C6.96342 43.0443 6.35234 44.222 5.36194 44.8636C4.39587 45.5133 3.09589 45.6169 2.03905 45.1326C0.787684 44.5834 -0.0584473 43.2435 0.00315877 41.8763C0.0226012 40.4895 0.97734 39.1936 2.28056 38.7335L2.28055 38.7335Z" fill="#FFA101"/>
</svg>
