<svg width="37" height="26" viewBox="0 0 37 26" fill="none" xmlns="http://www.w3.org/2000/svg">
<path fill-rule="evenodd" clip-rule="evenodd" d="M3.69599 0.466895C4.62308 0.225006 5.63488 0.960714 5.69417 1.91598C5.80967 2.84352 4.99424 3.73792 4.06098 3.71172C3.15391 3.73791 2.34925 2.89358 2.42086 1.98761C2.44319 1.27039 2.99451 0.614797 3.69599 0.466895Z" fill="#FFA101"/>
<path fill-rule="evenodd" clip-rule="evenodd" d="M24.8832 18.593C24.1431 18.8333 23.6518 19.6481 23.7965 20.4159C23.8997 21.0968 24.4774 21.6705 25.1597 21.7684C25.7674 21.8723 26.4159 21.5935 26.7624 21.0844C27.1121 20.5962 27.156 19.9115 26.8672 19.3839C26.5106 18.6862 25.6249 18.318 24.8832 18.593ZM11.712 18.603C11.0435 18.8364 10.5775 19.5372 10.633 20.245C10.6638 20.962 11.2221 21.6089 11.9238 21.7514C12.5322 21.8908 13.2045 21.642 13.5765 21.1422C13.9416 20.6755 14.0171 20.0062 13.7675 19.4694C13.441 18.7054 12.4875 18.2995 11.712 18.603ZM29.4826 7.00282C28.9428 9.96408 28.4021 12.9246 27.8653 15.8859C28.8642 16.4604 29.639 17.3892 30.0518 18.4628C30.4515 18.3319 30.7958 18.01 30.8743 17.5856C31.5551 14.5242 32.2367 11.462 32.9137 8.39911C33.0878 7.7414 32.5433 7.02052 31.864 7.0082C31.0699 6.99511 30.2759 7.00666 29.4826 7.00281M7.48148 1.41454C7.73024 0.827674 8.34636 0.423344 8.98483 0.431814C14.4522 0.430284 19.9203 0.430284 25.3877 0.431814C26.5245 0.433344 27.652 0.893904 28.4606 1.69257C29.0313 2.24401 29.4357 2.95486 29.6505 3.71654C30.3876 3.71886 31.1254 3.71424 31.8632 3.71808C33.0192 3.7281 34.1598 4.21868 34.9631 5.05047C35.7695 5.86915 36.2393 7.00974 36.2285 8.16037C36.2362 8.74723 36.0737 9.31561 35.9512 9.88476C35.3259 12.6966 34.7043 15.5092 34.0759 18.3203C33.8287 19.4455 33.1263 20.466 32.1474 21.0783C31.522 21.4826 30.7919 21.706 30.0518 21.766C29.676 22.815 28.952 23.74 28.0032 24.3291C26.7278 25.1432 25.0635 25.3011 23.6572 24.7443C22.3317 24.239 21.2658 23.1246 20.7906 21.7907C19.4929 21.7899 18.1944 21.7868 16.8967 21.793C16.4954 22.9066 15.6922 23.874 14.6571 24.4516C13.3732 25.1817 11.7505 25.2757 10.3919 24.695C9.12038 24.1712 8.10917 23.083 7.64553 21.7915C7.18729 21.8153 6.70054 21.7437 6.33549 21.4433C5.88341 21.0991 5.63772 20.5076 5.71321 19.9438C5.78252 19.32 6.24615 18.7647 6.84534 18.5814C7.10411 18.4936 7.37982 18.5044 7.64862 18.5006C8.04602 17.383 8.85546 16.4196 9.89132 15.8404C11.025 15.1981 12.4205 15.0472 13.6674 15.423C15.1569 15.8558 16.3807 17.0473 16.899 18.5036C18.196 18.5036 19.4921 18.5044 20.7891 18.5029C21.369 16.8424 22.8932 15.5663 24.6322 15.2944C25.2506 11.8872 25.8752 8.48078 26.4914 5.07359C26.6007 4.55759 26.2927 4.00538 25.8098 3.80591C25.5317 3.685 25.2221 3.72195 24.9279 3.71656C19.6393 3.71733 14.3498 3.7158 9.06033 3.71733C8.56897 3.7335 8.07298 3.53095 7.75183 3.15588C7.3344 2.69224 7.22658 1.98294 7.48151 1.41455" fill="#F7F8FA"/>
<path fill-rule="evenodd" clip-rule="evenodd" d="M5.31539 7.04944C5.58507 6.98631 5.86479 7.00632 6.13986 7.00402C8.16716 7.00402 10.1952 7.00402 12.2233 7.00402C12.7819 6.98554 13.3382 7.26958 13.6441 7.73836C13.9878 8.24563 14.0078 8.94685 13.6934 9.47337C13.413 9.96213 12.8674 10.2824 12.3034 10.2862C10.1182 10.2908 7.93215 10.287 5.7469 10.2885C5.19751 10.3047 4.65197 10.0276 4.34375 9.57343C4.03553 9.13161 3.97004 8.53505 4.17346 8.03703C4.36455 7.549 4.80453 7.16799 5.31539 7.04946V7.04944Z" fill="#FFA101"/>
<path fill-rule="evenodd" clip-rule="evenodd" d="M2.01191 11.9826C2.2022 11.9333 2.40096 11.931 2.59664 11.9302C4.19056 11.9349 5.7845 11.9279 7.37842 11.9341C7.98703 11.9364 8.57175 12.3143 8.82906 12.8639C9.07173 13.3634 9.03629 13.9854 8.7343 14.4518C8.44772 14.9129 7.91923 15.2092 7.3761 15.2138C5.73133 15.2185 4.08655 15.2154 2.44101 15.2154C1.92793 15.2246 1.41871 14.9775 1.10978 14.5681C0.791608 14.1586 0.692229 13.5951 0.843233 13.1002C1.00193 12.5575 1.46184 12.1173 2.01191 11.9826L2.01191 11.9826Z" fill="#FFA101"/>
<path fill-rule="evenodd" clip-rule="evenodd" d="M1.85425 18.6062C2.33031 18.4309 2.88713 18.4947 3.31012 18.7752C3.75156 19.0597 4.03843 19.567 4.05151 20.0919C4.07612 20.6515 3.78618 21.2103 3.31627 21.5147C2.8579 21.8229 2.2411 21.8721 1.73965 21.6423C1.14593 21.3817 0.744463 20.746 0.773692 20.0973C0.782919 19.4394 1.23591 18.8245 1.85424 18.6062L1.85425 18.6062Z" fill="#FFA101"/>
</svg>
