<svg width="20" height="20" viewBox="0 0 20 20" fill="none" xmlns="http://www.w3.org/2000/svg">
<g opacity="0.36">
<path fill-rule="evenodd" clip-rule="evenodd" d="M1.48079 1.26551C2.32779 0.466321 3.48134 0.000719971 4.64699 0.000329987C8.20018 -5.99976e-05 11.7538 -5.99976e-05 15.3073 0.000329987C16.316 0.00188992 17.3196 0.346016 18.1178 0.962791C19.046 1.67096 19.6954 2.73616 19.8872 3.88884C19.9743 4.36382 19.952 4.84817 19.9547 5.32862C19.9544 6.41061 19.9551 7.4926 19.9543 8.57419C19.9606 8.85504 19.8267 9.14683 19.5748 9.28471C19.2686 9.46323 18.8418 9.41049 18.6013 9.14605C18.4583 8.99372 18.3947 8.78161 18.3959 8.57576C18.3947 7.25981 18.3974 5.94384 18.3947 4.62788C18.3869 3.7287 17.9601 2.84748 17.2665 2.27681C16.712 1.81238 15.9915 1.55418 15.2687 1.55809C11.7409 1.55692 8.21268 1.55692 4.68488 1.55809C3.76602 1.55028 2.85927 1.97916 2.27665 2.6889C1.81702 3.23888 1.55851 3.95135 1.55929 4.66812C1.5589 8.20899 1.5589 11.7503 1.55929 15.2911C1.55929 15.9977 1.81077 16.7008 2.25946 17.2469C2.84053 17.9691 3.75587 18.4062 4.68293 18.3996C6.96151 18.4015 9.2401 18.3992 11.5183 18.4008C11.7831 18.3988 12.0549 18.525 12.1931 18.7566C12.413 19.1011 12.3185 19.6175 11.9627 19.8339C11.7397 19.9843 11.4578 19.9499 11.2044 19.9784H5.07227C4.77667 19.9444 4.47792 19.9683 4.18271 19.9319C3.07641 19.8194 2.02323 19.2886 1.26525 18.4765C0.481904 17.6469 0.0230573 16.5231 1.99977e-05 15.3821V4.57905C0.0222774 3.33418 0.568594 2.11236 1.48081 1.26552L1.48079 1.26551Z" fill="white"/>
<path fill-rule="evenodd" clip-rule="evenodd" d="M4.99953 3.03862C5.26838 2.99135 5.55616 3.08203 5.74844 3.27631C6.6363 4.16688 7.52028 5.06218 8.40899 5.95189C8.7243 6.26609 9.28307 6.25921 9.59494 5.94373C10.4858 5.05703 11.3732 4.16645 12.2632 3.27931C12.4284 3.11212 12.6637 3.01757 12.899 3.02744C13.2453 3.03304 13.5709 3.27329 13.6815 3.60081C13.792 3.90598 13.7073 4.26701 13.4754 4.49353C12.5876 5.38109 11.7006 6.26909 10.811 7.15451C10.3533 7.61096 9.72011 7.88518 9.07272 7.89937C8.37027 7.9243 7.66609 7.64235 7.17227 7.14289C6.29259 6.26135 5.41679 5.37594 4.53883 4.49311C4.33235 4.29067 4.2403 3.98121 4.30525 3.69925C4.37451 3.36528 4.66228 3.0915 4.99953 3.03862Z" fill="white"/>
<path fill-rule="evenodd" clip-rule="evenodd" d="M15.6474 4.35016C15.9316 4.29186 16.2427 4.42064 16.4003 4.66492C16.5945 4.94426 16.5539 5.35384 16.311 5.59148C12.7746 9.1291 9.23566 12.6642 5.69889 16.2014C5.61289 16.287 5.52911 16.3789 5.42059 16.4361C5.18694 16.566 4.88096 16.5549 4.65986 16.4032C4.41292 16.238 4.28299 15.9162 4.34907 15.6258C4.37934 15.4826 4.4598 15.3549 4.56352 15.2531C8.12538 11.6915 11.6887 8.13059 15.2506 4.5686C15.3569 4.45827 15.4957 4.3782 15.6474 4.35016H15.6474Z" fill="white"/>
<path fill-rule="evenodd" clip-rule="evenodd" d="M3.75457 5.72543C4.03628 5.66055 4.3455 5.75166 4.54807 5.95751C5.15579 6.56733 5.76221 7.17844 6.36949 7.78955C6.79701 8.21287 7.07011 8.78917 7.12129 9.38909C7.19182 10.127 6.9256 10.8898 6.40605 11.4193C5.81684 12.0187 5.22461 12.6148 4.63582 13.2143C4.52055 13.3364 4.38982 13.4511 4.22723 13.5044C3.89736 13.6265 3.50039 13.5169 3.27975 13.2431C3.00622 12.9273 3.01998 12.412 3.31244 12.1129C3.87369 11.54 4.43883 10.971 5.00138 10.3995C5.12998 10.2684 5.27449 10.1433 5.34588 9.96928C5.48652 9.65856 5.41812 9.26748 5.17685 9.02554C4.56441 8.4054 3.9481 7.78913 3.3348 7.16986C3.10814 6.94897 3.02255 6.59786 3.12406 6.29746C3.21395 6.01381 3.46297 5.78777 3.75457 5.72545V5.72543Z" fill="white"/>
<path fill-rule="evenodd" clip-rule="evenodd" d="M14.9896 10.8888C14.3162 10.986 13.6844 11.3347 13.2398 11.8491C12.7697 12.3871 12.5052 13.107 12.537 13.8222C12.5912 14.269 12.7908 14.6805 12.9881 15.0792C13.5287 16.1182 14.2203 17.0695 14.9372 17.9919C15.0438 18.1394 15.2154 18.2422 15.4004 18.2422C15.5857 18.2469 15.7616 18.148 15.8708 18.0014C16.3456 17.3937 16.8036 16.7723 17.2198 16.1229C17.6005 15.5191 17.9694 14.8973 18.1935 14.2161C18.3432 13.7942 18.2812 13.3332 18.1617 12.9122C17.9415 12.169 17.4069 11.5274 16.7167 11.1752C16.1899 10.9012 15.5762 10.8032 14.9896 10.8888ZM12.1126 10.5413C12.8996 9.72205 14.0014 9.21158 15.1371 9.15008C16.1641 9.08642 17.2091 9.38275 18.0477 9.97964C19.2274 10.8015 19.9752 12.2004 20.0001 13.6385V13.792C19.983 14.2247 19.8694 14.6474 19.7167 15.0504C19.2101 16.3418 18.4068 17.4879 17.5815 18.5931C17.3132 18.9355 17.0698 19.3139 16.6991 19.5573C15.9521 20.085 14.8847 20.0888 14.133 19.5693C13.7666 19.335 13.5245 18.9677 13.2621 18.6318C12.6949 17.8827 12.1535 17.1116 11.6912 16.2928C11.3488 15.6765 11.0366 15.0323 10.8844 14.3399C10.7833 13.8901 10.8061 13.4226 10.8801 12.9711C11.0315 12.0611 11.4692 11.2023 12.1126 10.5413" fill="white"/>
<path fill-rule="evenodd" clip-rule="evenodd" d="M15.5567 13.1331C15.9507 13.0582 16.3929 13.2093 16.6292 13.5411C16.9167 13.9323 16.8991 14.518 16.5837 14.8881C16.3735 15.1403 16.0383 15.2655 15.7152 15.2569C15.3693 15.2436 15.0389 15.0473 14.8579 14.7526C14.6758 14.4642 14.6457 14.0876 14.7784 13.7739C14.9104 13.4486 15.2125 13.1998 15.5567 13.1331V13.1331Z" fill="white"/>
</g>
</svg>
