<svg width="20" height="18" viewBox="0 0 20 18" fill="none" xmlns="http://www.w3.org/2000/svg">
<g opacity="0.36">
<path fill-rule="evenodd" clip-rule="evenodd" d="M4.56211 0.902379H12.2266C12.4254 0.922305 12.6262 0.998108 12.7621 1.14973C13.0246 1.43145 13.0305 1.90738 12.7793 2.1981C12.6262 2.38019 12.3844 2.46693 12.1504 2.46498C9.6625 2.46576 7.17461 2.46498 4.68672 2.46576C3.96055 2.46303 3.23789 2.72639 2.6832 3.1949C1.9914 3.76851 1.56757 4.65199 1.56328 5.55226C1.56133 8.05304 1.56328 10.5542 1.5625 13.055C1.55625 13.6161 1.70195 14.1788 1.98633 14.6633C2.52227 15.5987 3.56836 16.2161 4.64805 16.2188C8.03321 16.2208 11.418 16.2188 14.8031 16.2196C15.1434 16.2161 15.4867 16.2364 15.8234 16.1766C16.5344 16.0614 17.1984 15.6874 17.6695 15.1427C18.1789 14.5621 18.4563 13.788 18.4371 13.0159C18.4274 12.7654 18.4398 12.4911 18.6074 12.2887C18.8629 11.9593 19.3895 11.9109 19.7106 12.1707C19.8856 12.304 19.9758 12.5193 20 12.7334V13.2675C19.9512 14.5215 19.3813 15.7445 18.443 16.5791C17.5953 17.3489 16.457 17.7861 15.3121 17.7822C11.7711 17.783 8.23048 17.783 4.68985 17.7822C3.70118 17.7846 2.71641 17.4622 1.9211 16.8749C0.98712 16.1946 0.31876 15.1588 0.09376 14.0244C0.04298 13.7841 0.02032 13.5395 1e-05 13.2953V5.41355C0.04689 4.2632 0.52657 3.13668 1.33634 2.3169C2.17462 1.44983 3.35704 0.933268 4.56212 0.902399L4.56211 0.902379Z" fill="white"/>
<path fill-rule="evenodd" clip-rule="evenodd" d="M16.6571 2.34768C16.4104 2.41696 16.2114 2.63081 16.1616 2.88248C16.1096 3.1437 16.2107 3.43743 16.4295 3.59472C16.6745 3.77464 17.0343 3.77358 17.2793 3.59331C17.5829 3.3738 17.6518 2.89803 17.4185 2.60324C17.2496 2.37136 16.9321 2.26426 16.6571 2.34768ZM16.3772 0.968429C16.8851 0.858849 17.4323 0.927779 17.8907 1.17486C18.3217 1.40356 18.6606 1.79732 18.826 2.25613C18.9678 2.65343 19.0218 3.0928 18.9179 3.506C18.7889 4.07085 18.4153 4.57313 17.913 4.86121C17.4281 5.14469 16.8268 5.22493 16.286 5.06834C15.8392 4.94498 15.4377 4.66962 15.1599 4.29883C14.8308 3.86229 14.6706 3.29285 14.7579 2.74992C14.824 2.25188 15.0552 1.76904 15.438 1.43748C15.7031 1.20278 16.0315 1.04301 16.3772 0.968419" fill="white"/>
<path fill-rule="evenodd" clip-rule="evenodd" d="M9.83764 3.75534C10.07 3.69468 10.3296 3.77019 10.4993 3.96994C10.6405 4.13295 10.7046 4.36942 10.7035 4.59846C10.7032 7.77618 10.7042 10.9539 10.7028 14.1316C10.7046 14.4065 10.5789 14.6751 10.3813 14.8229C10.1778 14.9805 9.90314 14.9983 9.68552 14.8687C9.451 14.735 9.29252 14.4386 9.2957 14.1324C9.29428 11.0224 9.2957 7.91237 9.29498 4.80232C9.29428 4.61413 9.28653 4.41852 9.34921 4.24107C9.42668 3.99427 9.61929 3.80857 9.83762 3.75533L9.83764 3.75534Z" fill="white"/>
<path fill-rule="evenodd" clip-rule="evenodd" d="M3.75287 5.6199C3.82901 5.60216 3.90762 5.59826 3.98588 5.5979C4.78831 5.59861 5.59075 5.59826 6.39319 5.59826C6.56317 5.59826 6.7427 5.58442 6.90028 5.66213C7.18322 5.78598 7.35958 6.10957 7.30752 6.4151C7.26255 6.75114 6.9488 7.02294 6.60991 7.01691C5.73664 7.01868 4.86303 7.01655 3.98943 7.01798C3.81449 7.02187 3.63319 6.98356 3.49046 6.87781C3.25746 6.71033 3.16255 6.39168 3.23586 6.11881C3.295 5.87077 3.50393 5.67065 3.75287 5.6199Z" fill="white"/>
<path fill-rule="evenodd" clip-rule="evenodd" d="M15.2079 6.98896C15.7264 6.69238 16.3326 6.58951 16.9242 6.61671C17.7909 6.57959 18.6674 6.93453 19.2478 7.5825C19.6981 8.07105 19.9625 8.71904 19.9996 9.38117V9.57031C19.9748 9.87644 19.7373 10.1515 19.4337 10.208C19.1297 10.2759 18.7957 10.1122 18.6607 9.83225C18.5543 9.6357 18.6034 9.40415 18.5483 9.19452C18.4352 8.68158 18.0263 8.25488 17.5261 8.10287C17.2285 8.00531 16.9115 8.03359 16.604 8.03323C15.9918 8.04065 15.404 8.45285 15.2054 9.03472C15.1312 9.22316 15.1298 9.42678 15.1117 9.62509C15.0672 9.97331 14.7275 10.2473 14.3783 10.2215C14.0418 10.2109 13.7407 9.92733 13.7131 9.59114C13.6637 8.53168 14.2829 7.49341 15.2079 6.98894L15.2079 6.98896Z" fill="white"/>
<path fill-rule="evenodd" clip-rule="evenodd" d="M3.75294 8.78137C3.8301 8.76339 3.90974 8.75988 3.98867 8.75954C4.86188 8.76093 5.73508 8.75882 6.60863 8.76023C6.83622 8.75882 7.05921 8.87575 7.1877 9.06241C7.31867 9.24624 7.35087 9.49452 7.27158 9.70548C7.19902 9.90623 7.02983 10.0686 6.82596 10.1337C6.69819 10.1767 6.56155 10.1682 6.42882 10.1689C5.60341 10.1682 4.77799 10.1689 3.95221 10.1686C3.74763 10.17 3.53596 10.0985 3.39615 9.9453C3.17634 9.71006 3.15333 9.32406 3.33456 9.06028C3.42978 8.91693 3.58516 8.81833 3.75293 8.78136L3.75294 8.78137Z" fill="white"/>
<path fill-rule="evenodd" clip-rule="evenodd" d="M3.75523 11.9317C3.85472 11.9088 3.95774 11.9098 4.05934 11.9102C4.92142 11.9126 5.78386 11.9074 6.64594 11.9126C6.98369 11.9222 7.28356 12.2076 7.31188 12.5422C7.34729 12.8357 7.17203 13.1377 6.90049 13.2564C6.7656 13.3216 6.61266 13.3226 6.46608 13.3201C5.62808 13.3191 4.79007 13.3201 3.95207 13.3198C3.74744 13.3212 3.53608 13.2497 3.39658 13.0968C3.17105 12.8558 3.15264 12.4573 3.34702 12.1931C3.44367 12.0582 3.59378 11.9669 3.75522 11.9316L3.75523 11.9317Z" fill="white"/>
<path fill-rule="evenodd" clip-rule="evenodd" d="M13.2321 11.9321C13.3076 11.9144 13.386 11.9105 13.4637 11.9101C14.3358 11.9115 15.2082 11.9094 16.0803 11.9108C16.3243 11.9091 16.5619 12.0459 16.6848 12.2572C16.8172 12.4753 16.8165 12.7664 16.6834 12.984C16.5602 13.1943 16.3225 13.3297 16.0796 13.3279C15.197 13.3294 14.3143 13.3283 13.432 13.3287C13.2282 13.3304 13.0174 13.2595 12.8776 13.1063C12.6566 12.8702 12.6326 12.4806 12.813 12.214C12.9083 12.0686 13.064 11.9693 13.2321 11.9321V11.9321Z" fill="white"/>
</g>
</svg>
