<svg width="19" height="22" viewBox="0 0 19 22" fill="none" xmlns="http://www.w3.org/2000/svg">
<g opacity="0.36">
<path fill-rule="evenodd" clip-rule="evenodd" d="M9.26655 2.196C8.98792 2.26709 8.76354 2.50257 8.70312 2.78325C8.65668 3.0027 8.68175 3.23119 8.62792 3.44982C8.48367 4.20721 7.93464 4.86555 7.22164 5.15568C6.77781 5.33198 6.34959 5.54978 5.95509 5.81937C5.667 6.00882 5.41509 6.25416 5.09784 6.39717C4.41853 6.72963 3.57896 6.70086 2.9239 6.32238C2.67938 6.16868 2.35761 6.14485 2.09953 6.278C1.78268 6.43005 1.59036 6.80114 1.65652 7.14758C1.69721 7.40895 1.87802 7.63168 2.11021 7.75168C2.90129 8.20743 3.37677 9.15262 3.25841 10.06C3.17334 10.6522 3.16019 11.2559 3.23951 11.8497C3.28183 12.1439 3.2806 12.446 3.21485 12.7365C3.0813 13.3595 2.67609 13.9164 2.12748 14.2398C2.00049 14.3126 1.87761 14.3993 1.79419 14.5217C1.60844 14.7786 1.59406 15.1447 1.76254 15.4139C1.9224 15.6851 2.24788 15.8442 2.5602 15.8064C2.79732 15.7875 2.98512 15.6251 3.20498 15.5516C3.9636 15.2524 4.86728 15.4008 5.5018 15.9091C6.01754 16.3262 6.59698 16.6636 7.21506 16.9057C7.94367 17.197 8.50051 17.8759 8.6353 18.6502C8.69982 18.9391 8.62872 19.26 8.79064 19.5238C8.99283 19.8912 9.49542 20.0203 9.86365 19.8378C10.1452 19.7121 10.3149 19.4071 10.3186 19.1051C10.3177 18.6834 10.418 18.2597 10.6309 17.8944C10.8906 17.4362 11.3118 17.077 11.7996 16.881C12.4066 16.6402 12.9709 16.2999 13.478 15.8898C14.1133 15.3823 15.0186 15.2405 15.7756 15.5417C16.002 15.6181 16.1948 15.7895 16.4405 15.8072C16.7718 15.8454 17.1133 15.6605 17.262 15.3621C17.4083 15.0839 17.3701 14.7227 17.1704 14.4802C17.0204 14.2883 16.7775 14.2143 16.5967 14.0594C15.9589 13.5757 15.6051 12.7476 15.7041 11.952C15.7908 11.3241 15.7871 10.6851 15.6963 10.0576C15.5825 9.14236 16.0772 8.19388 16.8843 7.75211C17.1971 7.598 17.3997 7.24253 17.343 6.89404C17.2945 6.51473 16.9505 6.20446 16.5687 6.19172C16.3497 6.17158 16.15 6.27309 15.9667 6.37911C15.1777 6.80198 14.1548 6.70417 13.4521 6.15268C12.9499 5.74954 12.3902 5.41749 11.7914 5.17913C11.0644 4.89064 10.5051 4.21873 10.3638 3.4482C10.2947 3.15807 10.3679 2.83629 10.2092 2.56876C10.0346 2.24082 9.61623 2.09411 9.26652 2.19603L9.26655 2.196ZM9.40298 0.52835H9.55955C10.2249 0.54438 10.8914 0.82095 11.3353 1.32395C11.7084 1.73326 11.9094 2.27818 11.9533 2.82557C11.9681 2.99324 11.9595 3.17159 12.045 3.32282C12.1309 3.49583 12.2936 3.61501 12.4711 3.68199C13.1694 3.96431 13.824 4.35102 14.4141 4.81868C14.567 4.94402 14.7659 5.01512 14.9644 4.9921C15.1111 4.981 15.2401 4.90333 15.3667 4.83512C15.9367 4.52691 16.6308 4.4665 17.2485 4.65718C17.9019 4.85361 18.4677 5.33237 18.755 5.9525C19.0464 6.55044 19.0723 7.26755 18.8323 7.88685C18.6313 8.42684 18.2282 8.88341 17.7256 9.16327C17.4609 9.29724 17.2846 9.596 17.3327 9.89477C17.433 10.6176 17.44 11.3532 17.3446 12.0773C17.313 12.2734 17.359 12.4825 17.4847 12.6383C17.5941 12.783 17.7658 12.8545 17.9117 12.9547C18.8499 13.5654 19.2633 14.8648 18.8244 15.8996C18.5286 16.6266 17.8715 17.19 17.1116 17.3831C16.5342 17.5352 15.9022 17.4571 15.3778 17.1727C15.2385 17.0951 15.0872 17.0236 14.9237 17.0314C14.733 17.0305 14.5584 17.1222 14.4162 17.2422C13.8121 17.7267 13.1336 18.1163 12.4157 18.406C12.1362 18.512 11.95 18.8038 11.9648 19.1013C11.9689 19.8961 11.5584 20.6765 10.9038 21.1261C10.5314 21.3899 10.0831 21.5354 9.62979 21.5691H9.37623C8.85103 21.5358 8.33569 21.3398 7.9305 21.0028C7.4238 20.589 7.09422 19.966 7.04079 19.3138C7.02476 19.1317 7.04655 18.9374 6.95737 18.7705C6.87641 18.5963 6.71655 18.4722 6.53984 18.4052C5.83957 18.1253 5.17877 17.746 4.58658 17.2796C4.46124 17.1785 4.32357 17.0799 4.16001 17.0552C3.98371 17.0211 3.80331 17.0675 3.65043 17.1563C3.04222 17.4896 2.29223 17.5451 1.64046 17.31C1.03718 17.0975 0.52102 16.6426 0.24692 16.0636C-0.01362 15.5343 -0.07075 14.9092 0.08912 14.3413C0.24323 13.7688 0.61349 13.2568 1.1128 12.9366C1.24389 12.8512 1.39019 12.7776 1.48307 12.6469C1.59731 12.4973 1.64252 12.3025 1.61499 12.1172C1.51841 11.396 1.51554 10.6612 1.61704 9.94038C1.69224 9.60669 1.49951 9.2656 1.19869 9.12012C0.61432 8.77821 0.19104 8.18109 0.0546 7.51905C-0.06293 6.98112 0.01104 6.40455 0.25966 5.91346C0.56171 5.29087 1.1465 4.81827 1.81265 4.63786C2.42373 4.4669 3.10098 4.5417 3.65618 4.8495C3.93891 5.04552 4.3359 5.0147 4.58822 4.78292C5.17999 4.31567 5.84163 3.93841 6.54148 3.65773C6.71983 3.58992 6.87969 3.46253 6.96024 3.28664C7.0338 3.14486 7.02764 2.9813 7.04202 2.82678C7.08517 2.27775 7.28736 1.73077 7.66255 1.32105C8.0998 0.82832 8.75076 0.55627 9.40294 0.52832" fill="white"/>
<path fill-rule="evenodd" clip-rule="evenodd" d="M9.23172 8.52327C8.64046 8.58327 8.07565 8.86177 7.66823 9.29411C7.21756 9.75724 6.95853 10.4011 6.96555 11.0473C6.98504 11.6261 7.16692 12.2104 7.53696 12.6626C8.23146 13.5269 9.51802 13.7895 10.5234 13.3563C11.0994 13.1191 11.5731 12.6498 11.8099 12.0729C12.0105 11.5798 12.0915 11.0251 11.972 10.5016C11.8169 9.7771 11.3223 9.13596 10.6652 8.79517C10.2277 8.56574 9.72213 8.47184 9.23172 8.52326V8.52327ZM9.27963 6.97731C10.2745 6.92628 11.2942 7.2227 12.0768 7.84669C12.8951 8.48469 13.3991 9.4694 13.5374 10.4887C13.6831 11.3644 13.4961 12.2809 13.061 13.0506C12.5399 13.9784 11.6444 14.6896 10.6192 14.9775C9.81913 15.2069 8.94856 15.1847 8.1629 14.9101C7.13536 14.5599 6.26597 13.779 5.80166 12.7986C5.45812 12.0768 5.32453 11.251 5.46085 10.4611C5.6108 9.38723 6.17522 8.35775 7.07109 7.73101C7.713 7.27062 8.49321 7.01626 9.27962 6.97732" fill="white"/>
</g>
</svg>
