<svg width="20" height="20" viewBox="0 0 20 20" fill="none" xmlns="http://www.w3.org/2000/svg">
<g opacity="0.36">
<path fill-rule="evenodd" clip-rule="evenodd" d="M4.4607 0H4.63184C4.85149 0.0171941 5.06312 0.12686 5.19453 0.305302C5.37369 0.537627 5.39737 0.876177 5.25298 1.13181C5.12424 1.371 4.86066 1.52882 4.58867 1.52767C4.09778 1.52958 3.60729 1.64536 3.17256 1.87462C2.17972 2.38244 1.51541 3.46726 1.5284 4.58454C1.52802 7.03081 1.52802 9.47669 1.5284 11.923C1.52611 12.6245 1.77708 13.3222 2.2248 13.8622C2.79361 14.5603 3.68254 14.984 4.58408 14.9783C8.04659 14.9787 11.5091 14.9787 14.9716 14.9783C15.665 14.9806 16.3549 14.7368 16.8927 14.2993C17.593 13.7387 18.0246 12.8584 18.03 11.96C18.0319 9.78238 18.03 7.60436 18.0307 5.42671C18.0185 4.92003 18.072 4.40457 17.9539 3.90668C17.7931 3.18908 17.3603 2.53835 16.7644 2.10924C16.2697 1.74814 15.6634 1.54257 15.0511 1.53072C14.8899 1.5311 14.7233 1.50818 14.5846 1.42068C14.2912 1.25293 14.1419 0.877317 14.2404 0.553671C14.321 0.2541 14.5995 0.0305672 14.9063 -1.00024e-05H15.0935C16.2464 0.0290269 17.3798 0.511251 18.1957 1.32705C19.0243 2.13789 19.5179 3.27275 19.5588 4.43093V12.0865C19.5133 13.3047 18.964 14.4938 18.0582 15.3104C17.227 16.0753 16.1046 16.5106 14.9754 16.5067C11.7154 16.5079 8.45533 16.5067 5.19527 16.5071C4.76092 16.5044 4.32352 16.5243 3.89301 16.454C2.68205 16.2748 1.56162 15.5801 0.853753 14.5824C0.338039 13.8694 0.0488685 13.0047 -2.99991e-05 12.1281V4.41641C0.0442786 3.28117 0.521414 2.16846 1.32554 1.36412C2.14341 0.527685 3.29135 0.0301771 4.46067 -1.00024e-05L4.4607 0Z" fill="white"/>
<path fill-rule="evenodd" clip-rule="evenodd" d="M11.6666 4.15102C11.395 4.21482 11.1585 4.41003 11.0454 4.66522C10.9209 4.93492 10.9407 5.26537 11.0974 5.51827C11.2383 5.75245 11.489 5.9171 11.7606 5.95072C12.0127 5.98587 12.2767 5.90793 12.4703 5.74328C12.6854 5.5645 12.8096 5.28295 12.7958 5.00369C12.7863 4.72138 12.6354 4.449 12.4027 4.28931C12.1919 4.14109 11.9168 4.09066 11.6666 4.15102H11.6666ZM7.46552 4.15102C7.20385 4.21214 6.97387 4.39551 6.85621 4.63733C6.7309 4.88679 6.73052 5.1947 6.85468 5.44454C6.98037 5.70584 7.23746 5.89914 7.52399 5.94575C7.78528 5.99197 8.06415 5.91633 8.26664 5.74481C8.48322 5.56564 8.60854 5.28218 8.59325 5.00102C8.58332 4.71985 8.43242 4.449 8.20093 4.29008C7.99042 4.14147 7.71575 4.09067 7.46552 4.15103M8.4859 1.63008C8.17645 1.66599 7.88994 1.86502 7.76196 2.15077C7.62443 2.4518 7.48961 2.75436 7.35359 3.05577C8.97069 3.05615 10.5881 3.05615 12.2052 3.05577C12.0689 2.75436 11.9348 2.4518 11.7965 2.15077C11.6738 1.88374 11.4129 1.68585 11.1218 1.64268C10.252 1.49598 9.3569 1.49216 8.48589 1.63007M9.62241 0H9.89287C10.4292 0.01795 10.9683 0.05157 11.4954 0.15892C12.2217 0.31058 12.8604 0.81943 13.1752 1.4914C13.412 2.01018 13.6447 2.53164 13.8796 3.05157C14.0913 3.05081 14.3098 3.11078 14.4645 3.26168C14.7246 3.49586 14.7835 3.91532 14.5982 4.21214C14.4652 4.44364 14.2059 4.57773 13.9434 4.58996C13.9297 5.02508 13.9946 5.47739 13.838 5.89456C13.6691 6.38049 13.2764 6.77435 12.7989 6.96078C12.8142 7.20642 12.7584 7.47001 12.5735 7.64498C12.3175 7.91163 11.8645 7.94372 11.5741 7.71565C11.3701 7.56704 11.2643 7.31606 11.2647 7.06736C10.2745 7.06736 9.28432 7.06736 8.2941 7.06736C8.29642 7.34432 8.15927 7.62282 7.91515 7.76187C7.60953 7.95173 7.1767 7.88106 6.9475 7.60448C6.78744 7.43066 6.74808 7.18655 6.75994 6.95848C6.15288 6.73003 5.69791 6.15013 5.62876 5.50452C5.60203 5.20043 5.62113 4.89482 5.61539 4.58997C5.36249 4.57736 5.11228 4.45473 4.97551 4.23737C4.77876 3.94627 4.82233 3.52299 5.07597 3.27965C5.23146 3.11691 5.45875 3.04967 5.67918 3.05158C5.91413 2.53165 6.14679 2.01058 6.38362 1.49103C6.69995 0.81027 7.35127 0.29798 8.08743 0.14976C8.59285 0.05005 9.10858 0.01758 9.62239 1e-05" fill="white"/>
<path fill-rule="evenodd" clip-rule="evenodd" d="M3.64015 8.84849C3.71009 8.83169 3.78231 8.82826 3.85378 8.82749C4.75832 8.82787 5.66287 8.82825 6.5674 8.82749C6.73515 8.82328 6.91095 8.82711 7.06265 8.90847C7.36493 9.0536 7.54186 9.41263 7.4704 9.74072C7.40774 10.0887 7.07641 10.361 6.72255 10.3549C5.7542 10.356 4.78583 10.356 3.81747 10.3553C3.56296 10.3576 3.31457 10.222 3.17699 10.0085C3.04057 9.80298 3.01498 9.52989 3.11012 9.30225C3.19993 9.07728 3.404 8.90311 3.64015 8.84848V8.84849Z" fill="white"/>
<path fill-rule="evenodd" clip-rule="evenodd" d="M12.6613 8.84945C12.7312 8.83267 12.8038 8.82924 12.8756 8.82847C13.8314 8.8296 14.7869 8.8281 15.7427 8.82923C15.9979 8.82732 16.2474 8.96434 16.3837 9.17921C16.5404 9.41661 16.5449 9.74254 16.3963 9.9845C16.2627 10.2101 16.0067 10.3562 15.7439 10.3547C14.7747 10.3558 13.8054 10.3558 12.8362 10.3547C12.6173 10.3555 12.4011 10.2562 12.2594 10.0895C12.0806 9.8868 12.0256 9.58568 12.1199 9.33263C12.2036 9.09411 12.4149 8.90634 12.6613 8.84945Z" fill="white"/>
<path fill-rule="evenodd" clip-rule="evenodd" d="M9.60138 8.92049C10.047 8.79868 10.5369 9.1622 10.5453 9.62121C10.5515 10.6286 10.5461 11.636 10.548 12.6433C10.5553 12.8557 10.4754 13.0703 10.3221 13.2199C10.1116 13.4346 9.7685 13.5033 9.49035 13.3872C9.2072 13.2765 9.00818 12.9855 9.01202 12.6827C9.01089 11.6753 9.01089 10.6679 9.01202 9.66093C9.00589 9.31723 9.26446 8.99418 9.60138 8.92048V8.92049Z" fill="white"/>
<path fill-rule="evenodd" clip-rule="evenodd" d="M3.64031 11.9023C3.71022 11.8855 3.78281 11.8821 3.85425 11.8813C4.81041 11.8824 5.76658 11.8809 6.72234 11.882C6.97792 11.8805 7.22813 12.0179 7.36336 12.2343C7.51884 12.4713 7.52304 12.7965 7.37444 13.0377C7.24074 13.2637 6.98441 13.4095 6.72158 13.4076C5.75282 13.4087 4.78367 13.4087 3.81451 13.4076C3.56124 13.4091 3.31331 13.274 3.17656 13.061C3.04018 12.8546 3.01497 12.5809 3.11086 12.353C3.20139 12.1298 3.40539 11.9565 3.64031 11.9023Z" fill="white"/>
<path fill-rule="evenodd" clip-rule="evenodd" d="M12.6643 11.9009C12.7968 11.8711 12.9336 11.8822 13.0685 11.8806C13.9601 11.8811 14.8514 11.8799 15.7431 11.8811C16.0075 11.8791 16.2661 12.0265 16.3987 12.2552C16.5412 12.4903 16.54 12.8034 16.3956 13.0375C16.2619 13.2634 16.0056 13.4089 15.7427 13.407C14.7743 13.4081 13.8059 13.4081 12.8374 13.4074C12.5925 13.4089 12.3526 13.2837 12.2131 13.0829C12.0645 12.8752 12.0325 12.5912 12.131 12.3556C12.2212 12.1296 12.4267 11.9547 12.6643 11.9009V11.9009Z" fill="white"/>
<path fill-rule="evenodd" clip-rule="evenodd" d="M0.455736 16.2302C0.767076 16.0856 1.1697 16.1883 1.37103 16.4666C1.47187 16.609 1.55859 16.762 1.67205 16.8953C2.24162 17.6031 3.13819 18.0329 4.04737 18.0318C7.86821 18.0326 11.689 18.0326 15.5099 18.0318C16.5585 18.0379 17.5838 17.4588 18.1228 16.5605C18.2913 16.2524 18.6809 16.0875 19.0171 16.1986C19.317 16.2845 19.5351 16.5689 19.5588 16.8774V16.98C19.5435 17.0877 19.5191 17.1961 19.4644 17.2912C18.8849 18.2868 17.9161 19.0495 16.8079 19.3706C16.4129 19.4886 16.0015 19.5458 15.5901 19.5592H3.97174C2.98769 19.5393 2.01166 19.2003 1.23618 18.593C0.785416 18.241 0.399208 17.8062 0.106967 17.3144C0.0477585 17.2171 0.0171995 17.106 0 16.9941V16.8709C0.0240692 16.5956 0.200174 16.3398 0.455736 16.2302Z" fill="white"/>
</g>
</svg>
