<svg width="14" height="16" viewBox="0 0 14 16" fill="none" xmlns="http://www.w3.org/2000/svg">
<path d="M1 3.70215H2.35093H13.1584" stroke="#3F4254" stroke-width="1.2" stroke-linecap="round" stroke-linejoin="round"/>
<path d="M3.7776 3.70204C3.7776 4.03341 4.04623 4.30204 4.3776 4.30204C4.70898 4.30204 4.9776 4.03341 4.9776 3.70204H3.7776ZM9.18168 3.70204C9.18168 4.03341 9.45031 4.30204 9.78168 4.30204C10.1131 4.30204 10.3817 4.03341 10.3817 3.70204H9.18168ZM12.4082 3.70204C12.4082 3.37067 12.1396 3.10204 11.8082 3.10204C11.4768 3.10204 11.2082 3.37067 11.2082 3.70204H12.4082ZM2.95107 3.70204C2.95107 3.37067 2.68245 3.10204 2.35107 3.10204C2.0197 3.10204 1.75107 3.37067 1.75107 3.70204H2.95107ZM4.9776 3.70204V2.35102H3.7776V3.70204H4.9776ZM4.9776 2.35102C4.9776 1.93624 5.31385 1.6 5.72862 1.6V0.4C4.6511 0.4 3.7776 1.2735 3.7776 2.35102H4.9776ZM5.72862 1.6H8.43066V0.4H5.72862V1.6ZM8.43066 1.6C8.84544 1.6 9.18168 1.93624 9.18168 2.35102H10.3817C10.3817 1.2735 9.50819 0.4 8.43066 0.4V1.6ZM9.18168 2.35102V3.70204H10.3817V2.35102H9.18168ZM11.2082 3.70204V13.1592H12.4082V3.70204H11.2082ZM11.2082 13.1592C11.2082 13.574 10.872 13.9102 10.4572 13.9102V15.1102C11.5347 15.1102 12.4082 14.2367 12.4082 13.1592H11.2082ZM10.4572 13.9102H3.70209V15.1102H10.4572V13.9102ZM3.70209 13.9102C3.28732 13.9102 2.95107 13.574 2.95107 13.1592H1.75107C1.75107 14.2367 2.62457 15.1102 3.70209 15.1102V13.9102ZM2.95107 13.1592V3.70204H1.75107V13.1592H2.95107Z" fill="#3F4254"/>
<path d="M5.72852 7.07967V11.1358" stroke="#3F4254" stroke-width="1.2" stroke-linecap="round" stroke-linejoin="round"/>
<path d="M8.43066 7.07967V11.1358" stroke="#3F4254" stroke-width="1.2" stroke-linecap="round" stroke-linejoin="round"/>
</svg>
