<svg width="33" height="33" viewBox="0 0 33 33" fill="none" xmlns="http://www.w3.org/2000/svg">
<path fill-rule="evenodd" clip-rule="evenodd" d="M0.166146 16.1607C0.166146 7.23538 7.40153 0 16.3268 0C25.2521 0 32.4875 7.23538 32.4875 16.1607C32.4875 25.086 25.2521 32.3214 16.3268 32.3214C7.40153 32.3214 0.166146 25.086 0.166146 16.1607Z" fill="#F5F6FA"/>
<path fill-rule="evenodd" clip-rule="evenodd" d="M14.7805 21.0133C18.7471 21.0133 20.9167 17.593 20.9167 14.6273C20.9167 14.5299 20.9167 14.4331 20.9104 14.3369C21.3325 14.0196 21.6967 13.6258 21.9863 13.1751C21.5931 13.3567 21.1753 13.4759 20.748 13.5284C21.1979 13.2478 21.5348 12.8069 21.6962 12.2868C21.2725 12.5482 20.8095 12.7326 20.3265 12.8316C19.5097 11.9279 18.1437 11.8842 17.2749 12.7342C16.7152 13.2823 16.4771 14.0995 16.6511 14.8789C14.9172 14.7881 13.3015 13.9359 12.2062 12.534C11.6338 13.5596 11.9266 14.8713 12.8742 15.5298C12.531 15.5194 12.1952 15.4232 11.8951 15.2492V15.2777C11.8956 16.3459 12.6193 17.2659 13.6253 17.4776C13.3078 17.5679 12.9746 17.581 12.6519 17.5159C12.9341 18.4305 13.7441 19.0568 14.6665 19.0748C13.9028 19.6995 12.9594 20.0386 11.9881 20.0375C11.8167 20.0369 11.6454 20.0266 11.4746 20.0052C12.4611 20.6638 13.6085 21.0133 14.7805 21.0117" fill="#484848"/>
</svg>
